<?xml version="1.0" encoding="UTF-8"?>
<svg version="1.1" xmlns="http://www.w3.org/2000/svg" width="400" height="90">
<path d="M0 0 C8.724375 -0.0825 17.44875 -0.165 26.4375 -0.25 C29.17474365 -0.28641602 31.9119873 -0.32283203 34.73217773 -0.36035156 C36.92430845 -0.37204419 39.11644791 -0.38223465 41.30859375 -0.390625 C42.42850708 -0.41108887 43.54842041 -0.43155273 44.70227051 -0.45263672 C53.01738823 -0.45630664 58.6378283 1.36240781 65.6875 5.625 C74.23166398 14.40008733 76.39422381 24.3860275 76.375 36.25 C76.37338867 37.27472412 76.37177734 38.29944824 76.37011719 39.35522461 C76.25341051 46.53211288 75.56221381 52.63978433 72 59 C71.401875 60.093125 70.80375 61.18625 70.1875 62.3125 C65.04877535 68.62579028 59.99376906 72.20832996 52 74 C47.90776158 74.37477089 43.85260439 74.3515037 39.74609375 74.29296875 C38.73293091 74.28994751 37.71976807 74.28692627 36.67590332 74.28381348 C32.92966367 74.2682433 29.18357045 74.22636037 25.4375 74.1875 C12.8459375 74.0946875 12.8459375 74.0946875 0 74 C0 49.58 0 25.16 0 0 Z M13 13 C13 13.66 13 14.32 13 15 C13.99 14.67 14.98 14.34 16 14 C15.01 13.67 14.02 13.34 13 13 Z M27 15 C28 17 28 17 28 17 Z M28 17 C29 20 29 20 29 20 Z M40 17 C41 19 41 19 41 19 Z M41 19 C41 21.64 41 24.28 41 27 C41.33 27 41.66 27 42 27 C42 24.36 42 21.72 42 19 C41.67 19 41.34 19 41 19 Z M29 20 C29 23.63 29 27.26 29 31 C29.33 31 29.66 31 30 31 C30 27.37 30 23.74 30 20 C29.67 20 29.34 20 29 20 Z M40 28 C41 30 41 30 41 30 Z M28 31 C29 33 29 33 29 33 Z M42 46 C43 48 43 48 43 48 Z M43 48 C44 50 44 50 44 50 Z M58 50 C59 53 59 53 59 53 Z M44 51 C44 54.3 44 57.6 44 61 C44.33 61 44.66 61 45 61 C45 57.7 45 54.4 45 51 C44.67 51 44.34 51 44 51 Z M59 53 C59 54.98 59 56.96 59 59 C59.33 59 59.66 59 60 59 C60 57.02 60 55.04 60 53 C59.67 53 59.34 53 59 53 Z M58 60 C59 62 59 62 59 62 Z " fill="#404040" transform="translate(14,8)"/>
<path d="M0 0 C4.25001966 -0.09981078 8.49939595 -0.17190512 12.75024414 -0.21972656 C14.19242252 -0.23968751 15.6345216 -0.26686663 17.07641602 -0.30175781 C25.42060896 -0.49843203 32.65186598 -0.51911318 40 4 C40.886875 4.53625 41.77375 5.0725 42.6875 5.625 C51.23166398 14.40008733 53.39422381 24.3860275 53.375 36.25 C53.37258301 37.78708618 53.37258301 37.78708618 53.37011719 39.35522461 C53.25341051 46.53211288 52.56221381 52.63978433 49 59 C48.401875 60.093125 47.80375 61.18625 47.1875 62.3125 C42.10585137 68.55566832 36.98802608 72.35747091 29 74 C26.59781855 74.19834526 24.4146529 74.15412678 22 74 C23.64124051 72.90583966 25.28456276 71.81468998 26.9375 70.73828125 C31.73394825 67.42255472 34.50806489 64.86827811 36 59 C36.57214015 54.42287883 35.84347464 51.28659036 33.3046875 47.4140625 C28.09100871 41.19128459 22.33401056 37.37227401 15 34 C15.495 33.01 15.99 32.02 16.5 31 C18.62346587 25.88111368 19.07206926 21.67386686 17.00390625 16.515625 C13.78250603 10.49261042 9.9163802 6.99577904 4.171875 3.375 C2 2 2 2 0 0 Z " fill="#525252" transform="translate(37,8)"/>
<path d="M0 0 C8.25 0 16.5 0 25 0 C28.465 10.89 28.465 10.89 32 22 C34.28944927 15.89480195 36.28626502 9.89404328 38.1328125 3.66015625 C39 1 39 1 40 0 C41.51928038 -0.07179964 43.04167482 -0.08392007 44.5625 -0.0625 C45.38878906 -0.05347656 46.21507812 -0.04445312 47.06640625 -0.03515625 C47.70449219 -0.02355469 48.34257812 -0.01195312 49 0 C48.36868264 4.51314714 47.23925265 8.5908385 45.75 12.89453125 C45.53182617 13.52735519 45.31365234 14.16017914 45.08886719 14.81217957 C44.63054225 16.13819302 44.16989675 17.46340647 43.70703125 18.7878418 C42.99666547 20.82204877 42.29468929 22.85901245 41.59375 24.89648438 C38.14175238 34.85824762 38.14175238 34.85824762 37 36 C33.7 36 30.4 36 27 36 C21.555 20.16 21.555 20.16 16 4 C15.67 4.99 15.34 5.98 15 7 C14.01 7 13.02 7 12 7 C12 14.26 12 21.52 12 29 C12.99 29 13.98 29 15 29 C15 31.31 15 33.62 15 36 C10.05 36 5.1 36 0 36 C0 33.69 0 31.38 0 29 C0.99 29 1.98 29 3 29 C3 21.74 3 14.48 3 7 C2.01 7 1.02 7 0 7 C0 4.69 0 2.38 0 0 Z " fill="#737373" transform="translate(172,40)"/>
<path d="M0 0 C12.87 0 25.74 0 39 0 C41.475 5.94 41.475 5.94 44 12 C45.98 8.04 47.96 4.08 50 0 C53.3 0 56.6 0 60 0 C58.54455407 3.10555027 57.08578106 6.20946047 55.625 9.3125 C55.00625 10.63411133 55.00625 10.63411133 54.375 11.98242188 C53.97539062 12.82998047 53.57578125 13.67753906 53.1640625 14.55078125 C52.79748535 15.33106689 52.4309082 16.11135254 52.05322266 16.9152832 C51 19 51 19 49 22 C48.70547416 24.38677076 48.5071783 26.78626094 48.375 29.1875 C48.30023438 30.45980469 48.22546875 31.73210937 48.1484375 33.04296875 C48.09945312 34.01878906 48.05046875 34.99460938 48 36 C45.03 36 42.06 36 39 36 C39.03222656 35.20980469 39.06445312 34.41960937 39.09765625 33.60546875 C38.97762393 21.93566021 34.39383111 13.13110669 29 3 C28.67 4.32 28.34 5.64 28 7 C24.7 7 21.4 7 18 7 C18 16.57 18 26.14 18 36 C15.03 36 12.06 36 9 36 C9 26.43 9 16.86 9 7 C6.03 7 3.06 7 0 7 C0 4.69 0 2.38 0 0 Z " fill="#737373" transform="translate(325,40)"/>
<path d="M0 0 C5.89029971 -0.75195315 9.01024879 0.69971836 13.78515625 4.15234375 C19.21404694 8.68120671 24.47570325 13.79586932 25.2109375 21.09375 C25.43152754 26.18428944 24.73112701 29.5619186 22 34 C22.825 34.20625 23.65 34.4125 24.5 34.625 C32.16390066 37.63581812 38.40261712 43.17628894 42.3125 50.4375 C43.89483024 56.33527634 43.21067255 60.86362906 40.34375 66.13671875 C37.45930915 70.13636493 33.61706297 72.46097901 29 74 C26.42734182 74.07029121 23.88358569 74.09370832 21.3125 74.0625 C20.61060547 74.05798828 19.90871094 74.05347656 19.18554688 74.04882812 C17.45699462 74.03706927 15.72848635 74.01913454 14 74 C15.95702015 72.6953199 17.93582457 71.42257633 19.9375 70.1875 C23.52431844 67.62548683 26.02502276 64.94995449 28 61 C28.55652936 55.04941687 28.57914067 49.98910517 25 45 C21.0490041 41.0340382 17.15546695 37.30175745 12 35 C12.23396484 34.1646875 12.23396484 34.1646875 12.47265625 33.3125 C14.42955146 24.73115213 12.8395965 18.24307469 8.66015625 10.60546875 C6.69771514 7.52559059 4.75600965 5.37323053 2 3 C1.34 2.01 0.68 1.02 0 0 Z " fill="#737373" transform="translate(30,8)"/>
<path d="M0 0 C10 0 10 0 12.32861328 1.8359375 C12.82087402 2.67382812 13.31313477 3.51171875 13.8203125 4.375 C14.37460938 5.27734375 14.92890625 6.1796875 15.5 7.109375 C16.03625 8.06328125 16.5725 9.0171875 17.125 10 C17.69992188 10.95390625 18.27484375 11.9078125 18.8671875 12.890625 C20.277479 15.24111084 21.64323411 17.61821661 23 20 C23.33 13.4 23.66 6.8 24 0 C26.64 0 29.28 0 32 0 C32 11.88 32 23.76 32 36 C29.03 36 26.06 36 23 36 C20.64314827 33.52672169 19.30034871 31.76999566 17.6875 28.875 C17.28466797 28.20984375 16.88183594 27.5446875 16.46679688 26.859375 C15.70579957 25.60132436 14.95803877 24.3350833 14.22924805 23.05810547 C12.58732536 20.30906709 10.77617758 17.66426637 9 15 C8.67 21.93 8.34 28.86 8 36 C5.36 36 2.72 36 0 36 C0 24.12 0 12.24 0 0 Z " fill="#737373" transform="translate(136,40)"/>
<path d="M0 0 C3.196875 -0.061875 6.39375 -0.12375 9.6875 -0.1875 C11.18543091 -0.22846802 11.18543091 -0.22846802 12.71362305 -0.27026367 C17.60045592 -0.31605465 21.08380688 -0.29406875 25 3 C26.73994279 6.47988558 26.5976415 10.2043407 26 14 C24.57493025 16.45650135 23.05967593 17.99181597 21 20 C21.55429687 20.73605469 22.10859375 21.47210938 22.6796875 22.23046875 C23.40414063 23.20628906 24.12859375 24.18210937 24.875 25.1875 C25.59429687 26.15042969 26.31359375 27.11335938 27.0546875 28.10546875 C28.80596599 30.71128675 29.97459794 33.04792144 31 36 C27.11476325 36.75878041 23.84669566 37.04721364 20 36 C17.60205405 33.09630545 16.11256973 30.23333502 14.53515625 26.8203125 C13.12233225 23.58468148 13.12233225 23.58468148 9 22 C9 26.62 9 31.24 9 36 C6.03 36 3.06 36 0 36 C0 24.12 0 12.24 0 0 Z M9 6 C9 8.97 9 11.94 9 15 C11.91634129 15.2502157 11.91634129 15.2502157 15 15 C17.33391203 12.21885944 17.33391203 12.21885944 16.625 9.3125 C16.41875 8.549375 16.2125 7.78625 16 7 C13.69 6.67 11.38 6.34 9 6 Z " fill="#737373" transform="translate(251,40)"/>
<path d="M0 0 C0 1.65 0 3.3 0 5 C-2.31 5 -4.62 5 -7 5 C-4.702779 6.74271938 -2.40133271 8.39911152 0 10 C1.00471852 13.30121799 1.39615475 15.13778084 -0.0625 18.3125 C-2.69951021 20.60925082 -4.53082224 20.79593072 -8 21 C-10.00636471 20.70740515 -12.00714063 20.37366113 -14 20 C-15.99965715 19.96296931 -18.00056665 19.95239444 -20 20 C-20.33 18.68 -20.66 17.36 -21 16 C-22.98 16.33 -24.96 16.66 -27 17 C-27.33 17.99 -27.66 18.98 -28 20 C-31.72700939 20.34699743 -35.28672699 20.54118409 -39 20 C-41.5625 17.0625 -41.5625 17.0625 -43 14 C-43.66 13.67 -44.32 13.34 -45 13 C-45 15.31 -45 17.62 -45 20 C-46.65 20 -48.3 20 -50 20 C-50 13.4 -50 6.8 -50 0 C-38.54954955 -0.36936937 -38.54954955 -0.36936937 -36.09375 1.28125 C-34.26526634 4.15458146 -35.33897498 6.81506126 -36 10 C-36.66 10 -37.32 10 -38 10 C-37.2575 11.175625 -37.2575 11.175625 -36.5 12.375 C-35 15 -35 15 -35 17 C-34.34 17 -33.68 17 -33 17 C-32.87625 16.29359375 -32.7525 15.5871875 -32.625 14.859375 C-31.97171951 11.87061674 -31.0550417 9.12033404 -30 6.25 C-29.4740625 4.80367187 -29.4740625 4.80367187 -28.9375 3.328125 C-28 1 -28 1 -27 0 C-25.00041636 -0.04080783 -22.99954746 -0.04254356 -21 0 C-19 5 -17 10 -15 15 C-14.01 14.67 -13.02 14.34 -12 14 C-9.99124558 14.27571139 -7.98821313 14.60235737 -6 15 C-6.5775 14.5875 -7.155 14.175 -7.75 13.75 C-12.28571429 10.22222222 -12.28571429 10.22222222 -14 8 C-13.85205998 4.3014996 -13.64194427 2.64194427 -11 0 C-7.27111943 -1.51917357 -3.87218416 -0.67018572 0 0 Z M-45 4 C-45 5.32 -45 6.64 -45 8 C-43.68 7.67 -42.36 7.34 -41 7 C-41.33 6.01 -41.66 5.02 -42 4 C-42.99 4 -43.98 4 -45 4 Z M-25 7 C-25.33 8.65 -25.66 10.3 -26 12 C-25.01 12 -24.02 12 -23 12 C-23.33 10.35 -23.66 8.7 -24 7 C-24.33 7 -24.66 7 -25 7 Z " fill="#737373" transform="translate(310,14)"/>
<path d="M0 0 C2.97 0 5.94 0 9 0 C9.01981934 0.74685059 9.03963867 1.49370117 9.06005859 2.26318359 C9.15508211 5.63415605 9.26485259 9.00448929 9.375 12.375 C9.4059375 13.550625 9.436875 14.72625 9.46875 15.9375 C9.52675781 17.61972656 9.52675781 17.61972656 9.5859375 19.3359375 C9.6173584 20.37282715 9.6487793 21.4097168 9.68115234 22.47802734 C9.75954472 25.16809835 9.75954472 25.16809835 12 27 C15 27.41666667 15 27.41666667 18 27 C20.22535794 23.66196309 20.28978404 22.37180289 20.4140625 18.45703125 C20.45273438 17.38388672 20.49140625 16.31074219 20.53125 15.20507812 C20.57765625 13.52575195 20.57765625 13.52575195 20.625 11.8125 C20.66367188 10.68134766 20.70234375 9.55019531 20.7421875 8.38476562 C20.83652533 5.5900075 20.92211652 2.79525722 21 0 C23.97 0 26.94 0 30 0 C30.08765069 4.02069425 30.14061018 8.0411401 30.1875 12.0625 C30.21263672 13.19623047 30.23777344 14.32996094 30.26367188 15.49804688 C30.31869977 21.78956943 30.17372728 26.49887271 27 32 C23.23622801 35.76377199 20.07887829 36.28591145 14.9375 36.4375 C10.37612134 36.4316295 7.63198717 35.820903 4 33 C0.07212587 29.03204552 -0.2629143 26.05388309 -0.390625 20.5078125 C-0.36416004 18.04657089 -0.31663805 15.58548166 -0.25 13.125 C-0.23195313 11.86429688 -0.21390625 10.60359375 -0.1953125 9.3046875 C-0.14830729 6.20234386 -0.08260676 3.1015662 0 0 Z " fill="#737373" transform="translate(99,40)"/>
<path d="M0 0 C1.55074219 0.00966797 1.55074219 0.00966797 3.1328125 0.01953125 C5.875 0.1875 5.875 0.1875 8.875 1.1875 C8.875 4.1575 8.875 7.1275 8.875 10.1875 C7.864375 9.8575 6.85375 9.5275 5.8125 9.1875 C2.12020089 8.11748679 -1.27748207 8.03045845 -5.125 8.1875 C-5.03402714 10.10537309 -5.03402714 10.10537309 -4.125 12.1875 C-1.69456714 13.84324404 -1.69456714 13.84324404 1.25 15.1875 C5.08736798 17.05049659 7.743392 18.41130702 9.875 22.1875 C10.53582073 25.26582322 10.47508572 28.09898541 9.875 31.1875 C7.34531526 34.46925318 5.79768669 35.87993777 1.875 37.1875 C-0.26837765 37.30766328 -2.41579124 37.36281664 -4.5625 37.375 C-5.69558594 37.38917969 -6.82867187 37.40335938 -7.99609375 37.41796875 C-11.125 37.1875 -11.125 37.1875 -15.125 35.1875 C-15.125 32.2175 -15.125 29.2475 -15.125 26.1875 C-14.09375 26.6825 -13.0625 27.1775 -12 27.6875 C-8.58671975 29.15527974 -5.86941756 29.53581791 -2.125 29.1875 C-1.465 28.8575 -0.805 28.5275 -0.125 28.1875 C-1.15134165 25.4447904 -1.82310098 24.36097542 -4.40234375 22.87890625 C-5.28019531 22.50636719 -6.15804688 22.13382813 -7.0625 21.75 C-10.15199386 20.28327059 -11.95000445 19.38308326 -14.25 16.8125 C-15.40573471 13.34529588 -15.57926435 10.82161484 -15.125 7.1875 C-11.4294956 1.028326 -6.89787371 -0.09508347 0 0 Z " fill="#737373" transform="translate(297.125,38.8125)"/>
<path d="M0 0 C7.26 0 14.52 0 22 0 C22 2.31 22 4.62 22 7 C17.71 7 13.42 7 9 7 C9 9.31 9 11.62 9 14 C12.96 14 16.92 14 21 14 C21 16.31 21 18.62 21 21 C17.04 21 13.08 21 9 21 C9 23.31 9 25.62 9 28 C13.29 28 17.58 28 22 28 C22 30.64 22 33.28 22 36 C14.74 36 7.48 36 0 36 C0 24.12 0 12.24 0 0 Z " fill="#737373" transform="translate(224,40)"/>
<path d="M0 0 C0 1.65 0 3.3 0 5 C-2.31 4.67 -4.62 4.34 -7 4 C-4.87696444 7.18455334 -3.26504948 8.15817721 0 10 C1 11 1 11 1.1875 14.4375 C1 18 1 18 -1 20 C-7.08829404 21.42491988 -12.8369455 20.72440966 -19 20 C-19.33 18.68 -19.66 17.36 -20 16 C-22.31 16 -24.62 16 -27 16 C-27.33 17.32 -27.66 18.64 -28 20 C-29.98 20 -31.96 20 -34 20 C-31.69 13.4 -29.38 6.8 -27 0 C-24.69 0 -22.38 0 -20 0 C-18.02 5.28 -16.04 10.56 -14 16 C-13.67 15.34 -13.34 14.68 -13 14 C-10.36 14.33 -7.72 14.66 -5 15 C-5.5775 14.566875 -6.155 14.13375 -6.75 13.6875 C-7.4925 13.130625 -8.235 12.57375 -9 12 C-9.7425 11.566875 -10.485 11.13375 -11.25 10.6875 C-13 9 -13 9 -13.4375 6 C-13 3 -13 3 -11.75 1.1875 C-7.74820196 -1.52800581 -4.62620246 -0.94626869 0 0 Z M-24 7 C-24.33 8.65 -24.66 10.3 -25 12 C-24.01 12 -23.02 12 -22 12 C-22.33 10.35 -22.66 8.7 -23 7 C-23.33 7 -23.66 7 -24 7 Z " fill="#737373" transform="translate(381,14)"/>
<path d="M0 0 C4.95 0 9.9 0 15 0 C15 2.31 15 4.62 15 7 C14.01 7 13.02 7 12 7 C12 14.26 12 21.52 12 29 C12.99 29 13.98 29 15 29 C15 31.31 15 33.62 15 36 C10.05 36 5.1 36 0 36 C0 33.69 0 31.38 0 29 C0.99 29 1.98 29 3 29 C3 21.74 3 14.48 3 7 C2.01 7 1.02 7 0 7 C0 4.69 0 2.38 0 0 Z " fill="#737373" transform="translate(309,40)"/>
<path d="M0 0 C2.31 0 4.62 0 7 0 C8.99609375 2.1875 8.99609375 2.1875 10.4375 5 C11.17806641 6.3921875 11.17806641 6.3921875 11.93359375 7.8125 C12.28550781 8.534375 12.63742188 9.25625 13 10 C13.33 6.7 13.66 3.4 14 0 C15.65 0 17.3 0 19 0 C19 6.6 19 13.2 19 20 C17.02 20 15.04 20 13 20 C11.1015625 18.03125 11.1015625 18.03125 9.625 15.5 C9.12226563 14.6646875 8.61953125 13.829375 8.1015625 12.96875 C7.55628906 11.99421875 7.55628906 11.99421875 7 11 C6.67 13.97 6.34 16.94 6 20 C4.02 20 2.04 20 0 20 C0 13.4 0 6.8 0 0 Z " fill="#737373" transform="translate(218,14)"/>
<path d="M0 0 C11.625 -0.25 11.625 -0.25 15 2 C15.06558909 3.96767265 15.11606651 5.93966477 15.0234375 7.90625 C14.91530608 10.21582461 14.91530608 10.21582461 15.75 13.25 C16 16 16 16 14.40625 18.15625 C10.07088861 21.47815028 5.27814852 20.22948472 0 20 C0 13.4 0 6.8 0 0 Z M6 4 C6 5.32 6 6.64 6 8 C6.99 7.67 7.98 7.34 9 7 C9 6.01 9 5.02 9 4 C8.01 4 7.02 4 6 4 Z M6 12 C6 13.32 6 14.64 6 16 C7.32 15.67 8.64 15.34 10 15 C9.67 14.01 9.34 13.02 9 12 C8.01 12 7.02 12 6 12 Z " fill="#737373" transform="translate(181,14)"/>
<path d="M0 0 C11.93508501 -0.60278207 11.93508501 -0.60278207 16.3125 1.875 C18.71696935 6.32772102 19.0938203 10.05755273 18 15 C15.23076923 18.84615385 15.23076923 18.84615385 12 20 C7.90133957 20.39109355 4.13652237 20.2298068 0 20 C0 13.4 0 6.8 0 0 Z M5 4 C5 7.96 5 11.92 5 16 C9.79788568 15.49602637 9.79788568 15.49602637 11.875 13.25 C13.20569102 11.02772116 13.20569102 11.02772116 12.9375 8.375 C12.20857177 5.88922823 12.20857177 5.88922823 10.125 4.6875 C7.89651875 3.84608986 7.89651875 3.84608986 5 4 Z " fill="#737373" transform="translate(329,14)"/>
<path d="M0 0 C11.45621012 -0.36955517 11.45621012 -0.36955517 13.9140625 1.30078125 C15.69185166 4.08257364 14.49019502 6.8409654 14 10 C14.6599679 11.66933058 15.32558869 13.3364521 16 15 C15.08659568 17.74021297 14.60070695 18.69964653 12 20 C9.95944995 20.07065617 7.91665743 20.08421976 5.875 20.0625 C2.966875 20.0315625 2.966875 20.0315625 0 20 C0 13.4 0 6.8 0 0 Z M5 4 C5 5.32 5 6.64 5 8 C6.32 7.67 7.64 7.34 9 7 C8.67 6.01 8.34 5.02 8 4 C7.01 4 6.02 4 5 4 Z M5 12 C5 13.32 5 14.64 5 16 C6.65 15.67 8.3 15.34 10 15 C9.67 14.01 9.34 13.02 9 12 C7.68 12 6.36 12 5 12 Z " fill="#737373" transform="translate(136,14)"/>
<path d="M0 0 C1.918125 -0.0825 3.83625 -0.165 5.8125 -0.25 C7.43091797 -0.31960938 7.43091797 -0.31960938 9.08203125 -0.390625 C12 0 12 0 13.91015625 1.81640625 C15.41053785 4.82254717 14.71250361 6.79373377 14 10 C14.33 10.33 14.66 10.66 15 11 C15.46184579 16.31122653 15.46184579 16.31122653 13.87109375 18.68359375 C10.01062705 21.39962147 4.4867196 20.14473289 0 20 C0 13.4 0 6.8 0 0 Z M5 4 C5 5.32 5 6.64 5 8 C6.32 7.67 7.64 7.34 9 7 C8.67 6.01 8.34 5.02 8 4 C7.01 4 6.02 4 5 4 Z M5 12 C5 13.32 5 14.64 5 16 C6.32 16 7.64 16 9 16 C9.33 15.01 9.66 14.02 10 13 C8.35 12.67 6.7 12.34 5 12 Z " fill="#737373" transform="translate(99,14)"/>
<path d="M0 0 C1.98 0 3.96 0 6 0 C6.33 4.62 6.66 9.24 7 14 C8.32 14 9.64 14 11 14 C11.33 9.38 11.66 4.76 12 0 C13.65 0 15.3 0 17 0 C17.08089542 2.77141717 17.14044062 5.54047819 17.1875 8.3125 C17.21263672 9.09818359 17.23777344 9.88386719 17.26367188 10.69335938 C17.27333984 11.45068359 17.28300781 12.20800781 17.29296875 12.98828125 C17.3086792 13.68477783 17.32438965 14.38127441 17.34057617 15.09887695 C16.89196531 17.60305817 15.98082917 18.4499757 14 20 C9.64669578 21.23028163 7.00480268 21.11364586 3 19 C0.05710046 16.05710046 0.02672897 13.88526342 -0.09765625 9.765625 C-0.08605469 8.60546875 -0.07445312 7.4453125 -0.0625 6.25 C-0.05347656 5.07953125 -0.04445312 3.9090625 -0.03515625 2.703125 C-0.02355469 1.81109375 -0.01195312 0.9190625 0 0 Z " fill="#737373" transform="translate(153,14)"/>
<path d="M0 0 C2.31 0 4.62 0 7 0 C8.00577013 2.76886123 9.00480147 5.53984104 10 8.3125 C10.28617188 9.09818359 10.57234375 9.88386719 10.8671875 10.69335938 C11.13789063 11.45068359 11.40859375 12.20800781 11.6875 12.98828125 C11.93886719 13.68477783 12.19023437 14.38127441 12.44921875 15.09887695 C13 17 13 17 13 20 C11.02 20 9.04 20 7 20 C6.67 19.01 6.34 18.02 6 17 C4.02 16.67 2.04 16.34 0 16 C-0.33 17.32 -0.66 18.64 -1 20 C-2.98 20 -4.96 20 -7 20 C-5.07443364 13.14381674 -2.7527517 6.56747868 0 0 Z M3 7 C2.67 8.65 2.34 10.3 2 12 C2.99 12 3.98 12 5 12 C4.67 10.35 4.34 8.7 4 7 C3.67 7 3.34 7 3 7 Z " fill="#737373" transform="translate(245,14)"/>
<path d="M0 0 C1.98 0 3.96 0 6 0 C8.87884807 6.59278183 11.50865808 12.95001999 13 20 C11.02 20 9.04 20 7 20 C6.67 18.68 6.34 17.36 6 16 C4.02 16 2.04 16 0 16 C-0.33 17.32 -0.66 18.64 -1 20 C-2.98 20 -4.96 20 -7 20 C-5.27068234 12.99102311 -3.16032658 6.49711809 0 0 Z M2 8 C1.67 9.32 1.34 10.64 1 12 C2.32 11.67 3.64 11.34 5 11 C4.67 10.01 4.34 9.02 4 8 C3.34 8 2.68 8 2 8 Z " fill="#737373" transform="translate(204,14)"/>
<path d="M0 0 C2.31 0 4.62 0 7 0 C9.31 6.6 11.62 13.2 14 20 C12.02 20 10.04 20 8 20 C7.67 18.68 7.34 17.36 7 16 C4.69 16 2.38 16 0 16 C-0.33 17.32 -0.66 18.64 -1 20 C-2.98 20 -4.96 20 -7 20 C-4.69 13.4 -2.38 6.8 0 0 Z M3 6 C2.67 7.98 2.34 9.96 2 12 C2.99 12 3.98 12 5 12 C4.67 10.02 4.34 8.04 4 6 C3.67 6 3.34 6 3 6 Z " fill="#737373" transform="translate(121,14)"/>
<path d="M0 0 C2.97 0 5.94 0 9 0 C9 1.32 9 2.64 9 4 C8.34 4 7.68 4 7 4 C7 7.96 7 11.92 7 16 C7.66 16 8.32 16 9 16 C9 17.32 9 18.64 9 20 C6.03 20 3.06 20 0 20 C0 18.68 0 17.36 0 16 C0.66 16 1.32 16 2 16 C2 12.04 2 8.08 2 4 C1.34 4 0.68 4 0 4 C0 2.68 0 1.36 0 0 Z " fill="#737373" transform="translate(311,14)"/>
</svg>
