<?xml version="1.0" encoding="UTF-8"?>
<svg version="1.1" xmlns="http://www.w3.org/2000/svg" width="1043" height="418">
<path d="M0 0 C-1.37636429 3.75395122 -3.1007588 6.93674107 -5.2734375 10.2890625 C-5.92771729 11.30403809 -6.58199707 12.31901367 -7.25610352 13.36474609 C-7.95533936 14.44062988 -8.6545752 15.51651367 -9.375 16.625 C-10.46489523 18.3124904 -11.55323893 20.00097499 -12.64155579 21.68948364 C-13.37338618 22.82463276 -14.10571757 23.95945904 -14.83854675 25.09396362 C-18.1139706 30.16629742 -21.34587118 35.26524561 -24.5625 40.375 C-30.43767045 49.70516528 -36.33620966 59.01577879 -42.39038086 68.23120117 C-47.69701121 76.31062774 -52.93434276 84.41617294 -57.9375 92.6875 C-67.64001451 108.7052817 -67.64001451 108.7052817 -71 113 C-71.66 113 -72.32 113 -73 113 C-73 112.34 -73 111.68 -73 111 C-73.58177002 110.72381836 -74.16354004 110.44763672 -74.76293945 110.16308594 C-76.92139811 109.04086646 -78.81702458 107.80585201 -80.79296875 106.390625 C-81.50646484 105.88273437 -82.21996094 105.37484375 -82.95507812 104.8515625 C-83.69177734 104.32304687 -84.42847656 103.79453125 -85.1875 103.25 C-91.05421702 99.05421676 -96.97636061 94.96788961 -103 91 C-106.27354662 93.16568359 -109.54492107 95.33460773 -112.81445312 97.50634766 C-114.46374624 98.60093935 -116.11466798 99.69307583 -117.765625 100.78515625 C-123.14524905 104.36063809 -128.43255744 107.96520964 -133.49414062 111.98193359 C-135 113 -135 113 -137 113 C-136.96221436 111.68918457 -136.92442871 110.37836914 -136.88549805 109.02783203 C-136.76169438 104.12597989 -136.72484525 99.22653719 -136.71313477 94.32324219 C-136.69618588 92.20866702 -136.65620598 90.09413813 -136.59204102 87.98046875 C-135.6954937 75.43778744 -135.6954937 75.43778744 -140.67529297 64.56054688 C-143.84878071 61.87729935 -147.35368611 59.9721278 -151 58 C-152.58344242 56.83150644 -154.14492869 55.63203632 -155.671875 54.390625 C-157.03082497 53.34319833 -158.39019077 52.29631091 -159.75 51.25 C-160.46663818 50.69779785 -161.18327637 50.1455957 -161.92163086 49.57666016 C-166.35062402 46.18798057 -170.82769566 42.99830541 -175.62890625 40.1484375 C-176.30759766 39.57996094 -176.30759766 39.57996094 -177 39 C-177 38.01 -177 37.02 -177 36 C-176.3594165 35.88108398 -175.71883301 35.76216797 -175.05883789 35.63964844 C-153.79810787 31.66458555 -132.64059949 27.22503971 -111.48071289 22.74829102 C-108.98454298 22.22019017 -106.48836783 21.69211411 -103.9921875 21.1640625 C-102.74878098 20.90098801 -101.50537445 20.63791351 -100.22428894 20.36686707 C-86.04708487 17.37056289 -71.85774369 14.43318909 -57.66772461 11.49829102 C-46.92675809 9.27637972 -36.18688981 7.05128095 -25.4609375 4.7578125 C-24.27071991 4.50355247 -24.27071991 4.50355247 -23.05645752 4.24415588 C-19.46889081 3.47698317 -15.88220832 2.70600962 -12.296875 1.9284668 C-11.09289062 1.66976807 -9.88890625 1.41106934 -8.6484375 1.14453125 C-7.61895996 0.92128174 -6.58948242 0.69803223 -5.52880859 0.46801758 C-3 0 -3 0 0 0 Z " fill="#737373" transform="translate(956,45)"/>
<path d="M0 0 C55.84090909 0 55.84090909 0 65.8125 9.75 C72.14579459 19.15946625 72.41956016 30.25866525 70.4140625 41.1953125 C68.22315512 48.41123681 64.03955942 52.63939146 58 57 C57.01 57.495 57.01 57.495 56 58 C56.2630896 58.52395859 56.5261792 59.04791718 56.79724121 59.5877533 C59.52460953 65.02043922 62.2492069 70.45450809 64.97216797 75.8894043 C65.99000551 77.92003736 67.00855931 79.95031156 68.02783203 81.98022461 C69.48917171 84.89083264 70.94796651 87.80270355 72.40625 90.71484375 C72.86559937 91.6283812 73.32494873 92.54191864 73.79821777 93.48313904 C74.21865356 94.32393509 74.63908936 95.16473114 75.07226562 96.03100586 C75.44532837 96.77491074 75.81839111 97.51881561 76.20275879 98.28526306 C77 100 77 100 77 101 C69.74 101 62.48 101 55 101 C53.576875 98.298125 52.15375 95.59625 50.6875 92.8125 C50.19813965 91.90298584 49.7087793 90.99347168 49.20458984 90.05639648 C46.7457025 85.4718355 44.47321253 80.87630442 42.4140625 76.09765625 C41.97876221 75.14205811 41.54346191 74.18645996 41.0949707 73.2019043 C40.25634441 71.35335036 39.46337878 69.48321872 38.72338867 67.59301758 C37.45293452 64.57262397 37.45293452 64.57262397 34 61 C29.05 60.67 24.1 60.34 19 60 C19 73.53 19 87.06 19 101 C12.73 101 6.46 101 0 101 C0 67.67 0 34.34 0 0 Z M19 20 C19 26.6 19 33.2 19 40 C23.03963959 40.11512589 27.07507667 40.21454033 31.11547852 40.2746582 C32.48807102 40.29972617 33.86053102 40.33379082 35.23266602 40.37719727 C37.21050696 40.43817531 39.18934184 40.46361009 41.16796875 40.48828125 C42.95110474 40.52755737 42.95110474 40.52755737 44.77026367 40.56762695 C48.95755556 39.83170937 50.38808184 38.2831874 53 35 C54.20120695 30.8708511 54.26659572 28.74366175 52.8125 24.6875 C50.86862231 21.80519859 50.1739362 21.1681004 47 20 C43.90079282 19.72479244 43.90079282 19.72479244 40.484375 19.8046875 C39.23398437 19.81113281 37.98359375 19.81757813 36.6953125 19.82421875 C35.39335937 19.84097656 34.09140625 19.85773438 32.75 19.875 C30.77386719 19.88853516 30.77386719 19.88853516 28.7578125 19.90234375 C25.50513084 19.92591391 22.25254256 19.96178475 19 20 Z " fill="#4797C2" transform="translate(350,200)"/>
<path d="M0 0 C7 0 7 0 8.87695312 1.15820312 C9.34037109 1.69380859 9.80378906 2.22941406 10.28125 2.78125 C10.80944336 3.37196289 11.33763672 3.96267578 11.88183594 4.57128906 C12.41583008 5.20776367 12.94982422 5.84423828 13.5 6.5 C14.06750977 7.14420898 14.63501953 7.78841797 15.21972656 8.45214844 C16.83086128 10.28697484 18.41706964 12.1408536 20 14 C21.24875737 15.41776213 22.49845332 16.83469955 23.75 18.25 C24.27078125 18.85328125 24.7915625 19.4565625 25.328125 20.078125 C27.35758073 22.41105074 29.427647 24.70511245 31.5 27 C34.18983431 29.98062721 36.86310364 32.97245233 39.5 36 C42.76046763 39.74127392 46.07368624 43.43300368 49.3984375 47.1171875 C53.27010799 51.40741696 57.13410721 55.70456357 61 60 C61.33 40.2 61.66 20.4 62 0 C68.27 0 74.54 0 81 0 C81 33.33 81 66.66 81 101 C72 101 72 101 69.1796875 98.875 C68.41914063 97.92625 67.65859375 96.9775 66.875 96 C66.03839844 94.99066406 65.20179688 93.98132813 64.33984375 92.94140625 C63.56769531 91.97074219 62.79554688 91.00007813 62 90 C60.82078639 88.63861142 59.63425032 87.28349862 58.4375 85.9375 C57.88707031 85.30457031 57.33664062 84.67164063 56.76953125 84.01953125 C53.22423046 79.97334911 49.60541001 75.99256813 46 72 C41.23954403 66.72835412 36.49626465 61.44640769 31.8359375 56.0859375 C28.87309149 52.71964012 25.84447831 49.41276778 22.8203125 46.1015625 C21 44 21 44 20 42 C19.67 61.47 19.34 80.94 19 101 C12.73 101 6.46 101 0 101 C0 67.67 0 34.34 0 0 Z " fill="#4797C2" transform="translate(438,200)"/>
<path d="M0 0 C7 0 7 0 8.87695312 1.15820312 C9.34037109 1.69380859 9.80378906 2.22941406 10.28125 2.78125 C10.80944336 3.37196289 11.33763672 3.96267578 11.88183594 4.57128906 C12.41583008 5.20776367 12.94982422 5.84423828 13.5 6.5 C14.06750977 7.14420898 14.63501953 7.78841797 15.21972656 8.45214844 C16.83086128 10.28697484 18.41706964 12.1408536 20 14 C21.24875737 15.41776213 22.49845332 16.83469955 23.75 18.25 C24.27078125 18.85328125 24.7915625 19.4565625 25.328125 20.078125 C27.35758073 22.41105074 29.427647 24.70511245 31.5 27 C34.18983431 29.98062721 36.86310364 32.97245233 39.5 36 C42.76046763 39.74127392 46.07368624 43.43300368 49.3984375 47.1171875 C53.27010799 51.40741696 57.13410721 55.70456357 61 60 C61.33 40.2 61.66 20.4 62 0 C68.27 0 74.54 0 81 0 C81 33.33 81 66.66 81 101 C72 101 72 101 69.1796875 98.875 C68.41914063 97.92625 67.65859375 96.9775 66.875 96 C66.03839844 94.99066406 65.20179688 93.98132813 64.33984375 92.94140625 C63.56769531 91.97074219 62.79554688 91.00007813 62 90 C60.82078639 88.63861142 59.63425032 87.28349862 58.4375 85.9375 C57.88707031 85.30457031 57.33664063 84.67164063 56.76953125 84.01953125 C53.22423046 79.97334911 49.60541001 75.99256813 46 72 C41.23954403 66.72835412 36.49626465 61.44640769 31.8359375 56.0859375 C28.87309149 52.71964012 25.84447831 49.41276778 22.8203125 46.1015625 C21 44 21 44 20 42 C19.67 61.47 19.34 80.94 19 101 C12.73 101 6.46 101 0 101 C0 67.67 0 34.34 0 0 Z " fill="#4797C2" transform="translate(74,200)"/>
<path d="M0 0 C6.27 0 12.54 0 19 0 C19 13.2 19 26.4 19 40 C32.2 40 45.4 40 59 40 C59 26.8 59 13.6 59 0 C65.27 0 71.54 0 78 0 C78 33.33 78 66.66 78 101 C71.73 101 65.46 101 59 101 C59 87.47 59 73.94 59 60 C45.8 60 32.6 60 19 60 C19 73.53 19 87.06 19 101 C12.73 101 6.46 101 0 101 C0 67.67 0 34.34 0 0 Z " fill="#404040" transform="translate(620,200)"/>
<path d="M0 0 C21.78 0 43.56 0 66 0 C66 6.6 66 13.2 66 20 C50.16 20 34.32 20 18 20 C18 26.6 18 33.2 18 40 C29.88 40 41.76 40 54 40 C54 46.6 54 53.2 54 60 C42.12 60 30.24 60 18 60 C18 67.26 18 74.52 18 82 C33.84 82 49.68 82 66 82 C66 88.27 66 94.54 66 101 C44.22 101 22.44 101 0 101 C0 67.67 0 34.34 0 0 Z " fill="#4797C2" transform="translate(264,200)"/>
<path d="M0 0 C1.18613892 0.00785522 1.18613892 0.00785522 2.39624023 0.01586914 C3.67724609 0.02070313 3.67724609 0.02070313 4.98413086 0.02563477 C5.88196289 0.03401367 6.77979492 0.04239258 7.70483398 0.05102539 C8.6065332 0.05553711 9.50823242 0.06004883 10.43725586 0.06469727 C12.67234712 0.07652315 14.90730835 0.09300319 17.14233398 0.11352539 C22.16207723 14.09568717 27.17681184 28.0796348 32.18489075 42.065979 C34.7210818 49.14840043 37.26092635 56.2294931 39.80429077 63.30934143 C41.29745925 67.46894379 42.78664152 71.62996459 44.2746582 75.79141235 C44.97724587 77.75374442 45.68150659 79.7154783 46.38745117 81.67660522 C47.36612495 84.39621814 48.33893448 87.11785872 49.31030273 89.84008789 C49.59999435 90.6407518 49.88968597 91.44141571 50.18815613 92.26634216 C51.27862698 95.33819557 52.14233398 97.82795621 52.14233398 101.11352539 C45.54233398 101.11352539 38.94233398 101.11352539 32.14233398 101.11352539 C30.49233398 96.49352539 28.84233398 91.87352539 27.14233398 87.11352539 C7.34233398 86.61852539 7.34233398 86.61852539 -12.85766602 86.11352539 C-13.51766602 89.08352539 -14.17766602 92.05352539 -14.85766602 95.11352539 C-15.51766602 97.09352539 -16.17766602 99.07352539 -16.85766602 101.11352539 C-23.78766602 101.11352539 -30.71766602 101.11352539 -37.85766602 101.11352539 C-35.83371342 94.36701672 -33.73717939 87.73625989 -31.37329102 81.11352539 C-31.04049133 80.17497208 -30.70769165 79.23641876 -30.36480713 78.26942444 C-29.28155808 75.21657617 -28.19476169 72.16500581 -27.10766602 69.11352539 C-26.3529652 66.99044815 -25.59840975 64.86731923 -24.84399414 62.74414062 C-23.2921276 58.37828278 -21.73856915 54.01303183 -20.18383789 49.64819336 C-18.28920839 44.32817737 -16.39974879 39.00634552 -14.51239014 33.68374634 C-13.12563523 29.77431451 -11.73634338 25.86578796 -10.34631348 21.95751953 C-9.68796264 20.10529307 -9.03048979 18.25275429 -8.37390137 16.39990234 C-7.4649558 13.83601939 -6.55243078 11.27343948 -5.63891602 8.71118164 C-5.23542938 7.56940208 -5.23542938 7.56940208 -4.8237915 6.40455627 C-2.58929401 0.15823652 -2.58929401 0.15823652 0 0 Z M7.14233398 30.11352539 C5.43136065 34.93663483 3.72241646 39.76045641 2.01538086 44.58496094 C1.43391282 46.22741304 0.85188259 47.86966622 0.26928711 49.51171875 C-0.56616379 51.86675253 -1.39961569 54.2224853 -2.23266602 56.57836914 C-2.62639404 57.68618996 -2.62639404 57.68618996 -3.02807617 58.81639099 C-4.30401672 61.89319786 -4.30401672 61.89319786 -4.85766602 65.11352539 C3.39233398 65.11352539 11.64233398 65.11352539 20.14233398 65.11352539 C17.87449546 57.55406366 15.5444147 50.04536268 13.07983398 42.55102539 C12.72856445 41.45983398 12.37729492 40.36864258 12.01538086 39.24438477 C11.50394531 37.69267578 11.50394531 37.69267578 10.98217773 36.10961914 C10.67658936 35.17303467 10.37100098 34.2364502 10.05615234 33.27148438 C9.34635488 30.9450208 9.34635488 30.9450208 7.14233398 30.11352539 Z " fill="#404040" transform="translate(935.857666015625,199.886474609375)"/>
<path d="M0 0 C1.18613892 0.00785522 1.18613892 0.00785522 2.39624023 0.01586914 C3.67724609 0.02070313 3.67724609 0.02070313 4.98413086 0.02563477 C5.88196289 0.03401367 6.77979492 0.04239258 7.70483398 0.05102539 C8.6065332 0.05553711 9.50823242 0.06004883 10.43725586 0.06469727 C12.67234712 0.07652315 14.90730835 0.09300319 17.14233398 0.11352539 C22.16207723 14.09568717 27.17681184 28.0796348 32.18489075 42.065979 C34.7210818 49.14840043 37.26092635 56.2294931 39.80429077 63.30934143 C41.29745925 67.46894379 42.78664152 71.62996459 44.2746582 75.79141235 C44.97724587 77.75374442 45.68150659 79.7154783 46.38745117 81.67660522 C47.36612495 84.39621814 48.33893448 87.11785872 49.31030273 89.84008789 C49.59999435 90.6407518 49.88968597 91.44141571 50.18815613 92.26634216 C51.27862698 95.33819557 52.14233398 97.82795621 52.14233398 101.11352539 C45.54233398 101.11352539 38.94233398 101.11352539 32.14233398 101.11352539 C30.49233398 96.49352539 28.84233398 91.87352539 27.14233398 87.11352539 C7.34233398 86.61852539 7.34233398 86.61852539 -12.85766602 86.11352539 C-13.51766602 89.08352539 -14.17766602 92.05352539 -14.85766602 95.11352539 C-15.51766602 97.09352539 -16.17766602 99.07352539 -16.85766602 101.11352539 C-23.78766602 101.11352539 -30.71766602 101.11352539 -37.85766602 101.11352539 C-35.83371342 94.36701672 -33.73717939 87.73625989 -31.37329102 81.11352539 C-31.04049133 80.17497208 -30.70769165 79.23641876 -30.36480713 78.26942444 C-29.28155808 75.21657617 -28.19476169 72.16500581 -27.10766602 69.11352539 C-26.3529652 66.99044815 -25.59840975 64.86731923 -24.84399414 62.74414062 C-23.2921276 58.37828278 -21.73856915 54.01303183 -20.18383789 49.64819336 C-18.28920839 44.32817737 -16.39974879 39.00634552 -14.51239014 33.68374634 C-13.12563523 29.77431451 -11.73634338 25.86578796 -10.34631348 21.95751953 C-9.68796264 20.10529307 -9.03048979 18.25275429 -8.37390137 16.39990234 C-7.4649558 13.83601939 -6.55243078 11.27343948 -5.63891602 8.71118164 C-5.23542938 7.56940208 -5.23542938 7.56940208 -4.8237915 6.40455627 C-2.58929401 0.15823652 -2.58929401 0.15823652 0 0 Z M7.14233398 30.11352539 C5.43136065 34.93663483 3.72241646 39.76045641 2.01538086 44.58496094 C1.43391282 46.22741304 0.85188259 47.86966622 0.26928711 49.51171875 C-0.56616379 51.86675253 -1.39961569 54.2224853 -2.23266602 56.57836914 C-2.62639404 57.68618996 -2.62639404 57.68618996 -3.02807617 58.81639099 C-4.30401672 61.89319786 -4.30401672 61.89319786 -4.85766602 65.11352539 C3.39233398 65.11352539 11.64233398 65.11352539 20.14233398 65.11352539 C17.87449546 57.55406366 15.5444147 50.04536268 13.07983398 42.55102539 C12.72856445 41.45983398 12.37729492 40.36864258 12.01538086 39.24438477 C11.50394531 37.69267578 11.50394531 37.69267578 10.98217773 36.10961914 C10.67658936 35.17303467 10.37100098 34.2364502 10.05615234 33.27148438 C9.34635488 30.9450208 9.34635488 30.9450208 7.14233398 30.11352539 Z " fill="#404040" transform="translate(751.857666015625,199.886474609375)"/>
<path d="M0 0 C2.92278811 2.12711077 5.59658049 4.34559099 8 7.0625 C6.42637466 10.70310348 4.19045961 13.36090005 1.5625 16.3125 C0.78003906 17.20453125 -0.00242187 18.0965625 -0.80859375 19.015625 C-3 21.0625 -3 21.0625 -6 21.0625 C-7.67523395 19.73994688 -9.34106818 18.40544481 -11 17.0625 C-17.29424154 14.0476112 -23.99511499 14.06087166 -30.5625 16.25 C-33.42447109 18.37813235 -34.25562032 19.58872815 -35 23.0625 C-35.16210219 25.66898505 -35.16210219 25.66898505 -34 28.0625 C-29.41134002 31.72359012 -25.41184051 32.88884248 -19.8125 33.9375 C-10.23359672 35.980903 -1.24152845 39.10632617 4.8515625 47.2421875 C9.78462709 55.06126266 9.87699813 63.00018601 9 72.0625 C6.64719448 80.99304139 0.89640252 86.76292623 -6.62109375 91.765625 C-16.13626672 96.95287857 -29.06788894 96.42264665 -39.50390625 94.375 C-47.47258797 91.65453967 -55.22143798 87.12646125 -60 80.0625 C-59.55269531 79.55460937 -59.10539063 79.04671875 -58.64453125 78.5234375 C-55.03713058 74.41607725 -51.47885075 70.27928879 -48 66.0625 C-47.46632813 66.46082031 -46.93265625 66.85914063 -46.3828125 67.26953125 C-38.10887324 73.15290328 -30.65796696 76.00381098 -20.42578125 74.62890625 C-16.98715429 73.82600623 -15.19632816 72.84451567 -13 70.0625 C-12.01298989 66.44346294 -11.79398467 63.96896745 -12.625 60.3125 C-14.6414051 57.01292801 -17.19993913 55.55888042 -20.93359375 54.52929688 C-23.17934588 54.04777156 -25.43056109 53.61338168 -27.6875 53.1875 C-37.94233274 51.04940291 -45.64941557 48.38878514 -52.625 40.22265625 C-57.11270937 33.17236284 -56.68739481 25.11605155 -56 17.0625 C-54.47048602 11.13459988 -51.69664149 7.01194853 -47 3.0625 C-46.42378906 2.55847656 -45.84757813 2.05445313 -45.25390625 1.53515625 C-32.64067715 -8.84474456 -13.58035225 -8.77944213 0 0 Z " fill="#404040" transform="translate(593,205.9375)"/>
<path d="M0 0 C26.07 0 52.14 0 79 0 C79 6.6 79 13.2 79 20 C69.1 20 59.2 20 49 20 C49 46.73 49 73.46 49 101 C42.73 101 36.46 101 30 101 C30 74.27 30 47.54 30 20 C20.1 20 10.2 20 0 20 C0 13.4 0 6.8 0 0 Z " fill="#4797C2" transform="translate(170,200)"/>
<path d="M0 0 C6.27 0 12.54 0 19 0 C19 27.06 19 54.12 19 82 C34.84 82 50.68 82 67 82 C67 88.27 67 94.54 67 101 C44.89 101 22.78 101 0 101 C0 67.67 0 34.34 0 0 Z " fill="#404040" transform="translate(820,200)"/>
<path d="M0 0 C6.27 0 12.54 0 19 0 C19 33.33 19 66.66 19 101 C12.73 101 6.46 101 0 101 C0 67.67 0 34.34 0 0 Z " fill="#4797C2" transform="translate(35,200)"/>
<path d="M0 0 C0.99 0.495 0.99 0.495 2 1 C0.9627478 1.68896362 0.9627478 1.68896362 -0.09545898 2.3918457 C-8.44665949 7.9480741 -16.75848225 13.56107347 -25.0625 19.1875 C-35.22039398 26.06976371 -45.38807647 32.93693986 -55.57421875 39.77734375 C-58.50434651 41.74685405 -61.4343089 43.71661014 -64.36422729 45.68643188 C-66.27857284 46.97242687 -68.19370643 48.25724957 -70.10964966 49.54086304 C-72.80948147 51.34979483 -75.50654613 53.16278642 -78.203125 54.9765625 C-79.00485641 55.51212265 -79.80658783 56.0476828 -80.63261414 56.59947205 C-84.03542501 58.89305659 -87.31220888 61.19847694 -90.42480469 63.87646484 C-93 66 -93 66 -95 66 C-95.28875 66.721875 -95.5775 67.44375 -95.875 68.1875 C-96.91666667 70.79166667 -97.95833333 73.39583333 -99 76 C-99.66 76 -100.32 76 -101 76 C-101.66 77.32 -102.32 78.64 -103 80 C-103 70.1 -103 60.2 -103 50 C-92.125 44.8125 -92.125 44.8125 -88.76220703 43.21020508 C-84.04555214 40.95723103 -79.34510454 38.68167749 -74.6796875 36.32421875 C-72.01253836 34.98112054 -69.375245 33.73390065 -66.625 32.5625 C-61.30310042 30.26857777 -56.1694267 27.61631131 -51 25 C-48.89681754 23.93555313 -46.79267462 22.8730015 -44.6875 21.8125 C-43.76324219 21.34457031 -42.83898437 20.87664062 -41.88671875 20.39453125 C-39.82285881 19.39751095 -37.72978092 18.46009037 -35.62036133 17.56347656 C-31.78926304 15.90899187 -28.09692274 14.07693904 -24.38671875 12.171875 C-22.96046209 11.44757073 -21.53402463 10.72362237 -20.10742188 10 C-17.88246742 8.86885995 -15.65886591 7.73530533 -13.43823242 6.59570312 C-11.27879867 5.4889076 -9.11452983 4.39211708 -6.94921875 3.296875 C-6.28153976 2.95114441 -5.61386078 2.60541382 -4.9259491 2.24920654 C-3.3133084 1.43828015 -1.65930323 0.71058032 0 0 Z " fill="#737373" transform="translate(931,60)"/>
<path d="M0 0 C0.66 0 1.32 0 2 0 C2.33 0.99 2.66 1.98 3 3 C-1.5190647 7.5190647 -5.95796358 9.17964287 -12 11 C-12 10.34 -12 9.68 -12 9 C-13.04486572 9.41975098 -14.08973145 9.83950195 -15.16625977 10.27197266 C-27.28215749 15.08954405 -39.54052601 19.34182588 -51.9375 23.375 C-52.92925232 23.6988266 -53.92100464 24.0226532 -54.94281006 24.35629272 C-68.40447252 28.73666212 -81.90625481 32.81506436 -95.625 36.3125 C-96.33099335 36.49327087 -97.03698669 36.67404175 -97.76437378 36.86029053 C-119.46308163 42.36992663 -119.46308163 42.36992663 -129.75 42.125 C-130.75546875 42.10695312 -131.7609375 42.08890625 -132.796875 42.0703125 C-133.52390625 42.04710937 -134.2509375 42.02390625 -135 42 C-134.67 41.01 -134.34 40.02 -134 39 C-132.11181641 38.2956543 -132.11181641 38.2956543 -129.6015625 37.82421875 C-128.6633667 37.64012451 -127.7251709 37.45603027 -126.75854492 37.26635742 C-125.7244751 37.07533447 -124.69040527 36.88431152 -123.625 36.6875 C-121.38393562 36.24047962 -119.14305594 35.79253241 -116.90234375 35.34375 C-113.6166777 34.69987835 -110.33044466 34.06191409 -107.03955078 33.4453125 C-90.05228311 30.23016703 -73.72543728 25.31122928 -57.25 20.125 C-56.17406586 19.78665131 -55.09813171 19.44830261 -53.98959351 19.09970093 C-41.33638295 15.10639256 -28.75355809 10.94432551 -16.2444458 6.51907349 C-15.35005798 6.2032431 -14.45567017 5.88741272 -13.53417969 5.56201172 C-12.75226257 5.28380585 -11.97034546 5.00559998 -11.16473389 4.71896362 C-9.12397248 4.04117444 -7.08567684 3.51772861 -5 3 C-3.3255761 2.3530635 -1.65697379 1.69040574 0 1 C0 0.67 0 0.34 0 0 Z " fill="#777996" transform="translate(812,152)"/>
<path d="M0 0 C1.051875 -0.00386719 1.051875 -0.00386719 2.125 -0.0078125 C4 0.125 4 0.125 6 1.125 C6 1.785 6 2.445 6 3.125 C6.680625 2.63 7.36125 2.135 8.0625 1.625 C11.72999792 -0.24776489 13.93187045 -0.46672793 18 0.125 C20.74525693 2.36314019 21.88070342 4.15793431 22.31665039 7.69189453 C22.39409904 10.78319469 22.34817542 13.84686232 22.25 16.9375 C22.23195313 18.01193359 22.21390625 19.08636719 22.1953125 20.19335938 C22.14829392 22.83815465 22.0825916 25.48111589 22 28.125 C20.35 28.125 18.7 28.125 17 28.125 C16.95101562 26.87203125 16.90203125 25.6190625 16.8515625 24.328125 C16.77651417 22.67706179 16.70096723 21.02602119 16.625 19.375 C16.5940625 18.55 16.563125 17.725 16.53125 16.875 C16.49257813 16.07578125 16.45390625 15.2765625 16.4140625 14.453125 C16.36693115 13.35339355 16.36693115 13.35339355 16.31884766 12.23144531 C15.96227477 9.87577082 15.16337117 8.19049409 14 6.125 C12.01508358 6.39176204 12.01508358 6.39176204 10 7.125 C9.11360611 9.78418166 8.82010975 11.60564641 8.68359375 14.35546875 C8.64169922 15.15791016 8.59980469 15.96035156 8.55664062 16.78710938 C8.51732422 17.62048828 8.47800781 18.45386719 8.4375 19.3125 C8.39431641 20.15748047 8.35113281 21.00246094 8.30664062 21.87304688 C8.20068482 23.95684433 8.0998498 26.04090103 8 28.125 C6.35 28.125 4.7 28.125 3 28.125 C2.95101562 26.87203125 2.90203125 25.6190625 2.8515625 24.328125 C2.77651417 22.67706179 2.70096723 21.02602119 2.625 19.375 C2.5940625 18.55 2.563125 17.725 2.53125 16.875 C2.49257813 16.07578125 2.45390625 15.2765625 2.4140625 14.453125 C2.3826416 13.7199707 2.3512207 12.98681641 2.31884766 12.23144531 C1.96227477 9.87577082 1.16337117 8.19049409 0 6.125 C-1.65 6.125 -3.3 6.125 -5 6.125 C-5.7795458 8.93247455 -6.1710149 11.54529808 -6.31640625 14.453125 C-6.35830078 15.25234375 -6.40019531 16.0515625 -6.44335938 16.875 C-6.50233398 18.1125 -6.50233398 18.1125 -6.5625 19.375 C-6.60568359 20.21546875 -6.64886719 21.0559375 -6.69335938 21.921875 C-6.79908543 23.98940671 -6.90001295 26.05718281 -7 28.125 C-8.65 28.125 -10.3 28.125 -12 28.125 C-12.33 19.215 -12.66 10.305 -13 1.125 C-10.69 1.125 -8.38 1.125 -6 1.125 C-3.75487738 0.00243869 -2.48543351 -0.00913762 0 0 Z " fill="#404040" transform="translate(857,336.875)"/>
<path d="M0 0 C3.12788822 0.05461392 4.41372477 0.14402293 7.125 1.8125 C10.76472539 7.63606063 11.08876867 13.32245944 10.23828125 19.97265625 C9.40859975 23.49733154 8.02064132 25.55515117 5.6875 28.3125 C3.44237738 29.43506131 2.17293351 29.44663762 -0.3125 29.4375 C-1.364375 29.44136719 -1.364375 29.44136719 -2.4375 29.4453125 C-4.3125 29.3125 -4.3125 29.3125 -6.3125 28.3125 C-6.3125 32.2725 -6.3125 36.2325 -6.3125 40.3125 C-8.2925 40.3125 -10.2725 40.3125 -12.3125 40.3125 C-12.6425 27.4425 -12.9725 14.5725 -13.3125 1.3125 C-10.64583333 1.3125 -7.97916667 1.3125 -5.3125 1.3125 C-3.74308802 -0.25691198 -2.17115006 0.0675153 0 0 Z M-5.0390625 6.40625 C-6.90980288 9.2066221 -6.71002726 11.47846533 -6.6875 14.8125 C-6.69523438 15.9571875 -6.70296875 17.101875 -6.7109375 18.28125 C-6.55946475 21.28560329 -6.55946475 21.28560329 -4.9453125 23.2109375 C-3.29452266 24.52942637 -3.29452266 24.52942637 -0.8125 24.4375 C2.00631415 23.45504593 2.00631415 23.45504593 3.5625 20.1875 C4.96349334 16.31088774 4.74598886 13.3196364 3.6875 9.3125 C2.53183554 6.85099534 2.53183554 6.85099534 0.6875 5.3125 C-3.08996671 4.95573799 -3.08996671 4.95573799 -5.0390625 6.40625 Z " fill="#404040" transform="translate(697.3125,336.6875)"/>
<path d="M0 0 C1.98 0 3.96 0 6 0 C6.33 4.29 6.66 8.58 7 13 C7.66 12.67 8.32 12.34 9 12 C16.13298508 11.30971112 16.13298508 11.30971112 19.2421875 13.78515625 C21.92280009 18.68769884 21.42427299 23.3262521 21.25 28.8125 C21.23195313 29.88693359 21.21390625 30.96136719 21.1953125 32.06835938 C21.14829392 34.71315465 21.0825916 37.35611589 21 40 C19.02 40 17.04 40 15 40 C14.67 32.74 14.34 25.48 14 18 C12.35 18 10.7 18 9 18 C6.56085508 20.43914492 6.71337477 21.21446431 6.5859375 24.5703125 C6.54726563 25.46621094 6.50859375 26.36210937 6.46875 27.28515625 C6.4378125 28.22230469 6.406875 29.15945313 6.375 30.125 C6.33632813 31.06988281 6.29765625 32.01476562 6.2578125 32.98828125 C6.16338654 35.32532375 6.07781606 37.66235501 6 40 C4.02 40 2.04 40 0 40 C0 26.8 0 13.6 0 0 Z " fill="#404040" transform="translate(763,325)"/>
<path d="M0 0 C1.98 0 3.96 0 6 0 C6.33 4.29 6.66 8.58 7 13 C7.66 12.67 8.32 12.34 9 12 C16.13298508 11.30971112 16.13298508 11.30971112 19.2421875 13.78515625 C21.92280009 18.68769884 21.42427299 23.3262521 21.25 28.8125 C21.23195313 29.88693359 21.21390625 30.96136719 21.1953125 32.06835938 C21.14829392 34.71315465 21.0825916 37.35611589 21 40 C19.02 40 17.04 40 15 40 C14.67 32.74 14.34 25.48 14 18 C12.35 18 10.7 18 9 18 C6.56085508 20.43914492 6.71337477 21.21446431 6.5859375 24.5703125 C6.54726563 25.46621094 6.50859375 26.36210937 6.46875 27.28515625 C6.4378125 28.22230469 6.406875 29.15945313 6.375 30.125 C6.33632813 31.06988281 6.29765625 32.01476562 6.2578125 32.98828125 C6.16338654 35.32532375 6.07781606 37.66235501 6 40 C4.02 40 2.04 40 0 40 C0 26.8 0 13.6 0 0 Z " fill="#404040" transform="translate(644,325)"/>
<path d="M0 0 C4.82596069 3.15422267 9.57557408 6.28919117 14 10 C12.74233862 13.77298413 11.46927167 14.26321795 8.15234375 16.36328125 C7.15396484 17.00330078 6.15558594 17.64332031 5.12695312 18.30273438 C4.07443359 18.96595703 3.02191406 19.62917969 1.9375 20.3125 C-7.49787625 26.30755398 -7.49787625 26.30755398 -16.47436523 32.95776367 C-18 34 -18 34 -20 34 C-20 33.34 -20 32.68 -20 32 C-19.34 32 -18.68 32 -18 32 C-17.731875 31.113125 -17.46375 30.22625 -17.1875 29.3125 C-16.07868507 26.21948994 -14.69177578 23.79510781 -13 21 C-12.30420546 18.80869466 -12.30420546 18.80869466 -12 17 C-11.34 17 -10.68 17 -10 17 C-9.67 15.35 -9.34 13.7 -9 12 C-8.34 12 -7.68 12 -7 12 C-6.896875 11.278125 -6.79375 10.55625 -6.6875 9.8125 C-5.5642625 5.21743751 -3.93931026 2.62620684 0 0 Z " fill="#636162" transform="translate(839,124)"/>
<path d="M0 0 C0.84304688 -0.03996094 1.68609375 -0.07992188 2.5546875 -0.12109375 C6.5487578 0.74691849 7.78864353 2.07412869 10.125 5.4375 C10.8705688 9.37307023 10.91552229 13.25249801 10.9375 17.25 C10.96263672 18.32443359 10.98777344 19.39886719 11.01367188 20.50585938 C11.07243295 23.15010771 11.10879376 25.79270488 11.125 28.4375 C10.01125 28.416875 8.8975 28.39625 7.75 28.375 C4.29284079 28.17369282 4.29284079 28.17369282 2.125 29.4375 C-5.04487448 29.89273013 -5.04487448 29.89273013 -7.8125 28.375 C-9.46416681 25.36313699 -9.75714109 22.85540842 -9.875 19.4375 C-8.16896915 15.26720236 -5.97800819 13.25045711 -1.875 11.4375 C1.4375 11.25 1.4375 11.25 4.125 11.4375 C3.795 9.4575 3.465 7.4775 3.125 5.4375 C-0.175 6.0975 -3.475 6.7575 -6.875 7.4375 C-7.205 5.7875 -7.535 4.1375 -7.875 2.4375 C-4.72405867 0.33687245 -3.6525634 0.09436714 0 0 Z M-2.875 17.4375 C-3.87030794 19.33518759 -3.87030794 19.33518759 -3.875 21.4375 C-2.885 22.9225 -2.885 22.9225 -1.875 24.4375 C0.56217258 24.16715366 0.56217258 24.16715366 3.125 23.4375 C5.2769437 20.20958445 5.32586443 19.15349191 5.125 15.4375 C0.73349511 15.42372407 0.73349511 15.42372407 -2.875 17.4375 Z " fill="#404040" transform="translate(893.875,336.5625)"/>
<path d="M0 0 C0.84304688 -0.03996094 1.68609375 -0.07992188 2.5546875 -0.12109375 C6.5487578 0.74691849 7.78864353 2.07412869 10.125 5.4375 C10.8705688 9.37307023 10.91552229 13.25249801 10.9375 17.25 C10.96263672 18.32443359 10.98777344 19.39886719 11.01367188 20.50585938 C11.07243295 23.15010771 11.10879376 25.79270488 11.125 28.4375 C10.01125 28.416875 8.8975 28.39625 7.75 28.375 C4.29284079 28.17369282 4.29284079 28.17369282 2.125 29.4375 C-5.04487448 29.89273013 -5.04487448 29.89273013 -7.8125 28.375 C-9.46416681 25.36313699 -9.75714109 22.85540842 -9.875 19.4375 C-8.16896915 15.26720236 -5.97800819 13.25045711 -1.875 11.4375 C1.4375 11.25 1.4375 11.25 4.125 11.4375 C3.795 9.4575 3.465 7.4775 3.125 5.4375 C-0.175 6.0975 -3.475 6.7575 -6.875 7.4375 C-7.205 5.7875 -7.535 4.1375 -7.875 2.4375 C-4.72405867 0.33687245 -3.6525634 0.09436714 0 0 Z M-2.875 17.4375 C-3.87030794 19.33518759 -3.87030794 19.33518759 -3.875 21.4375 C-2.885 22.9225 -2.885 22.9225 -1.875 24.4375 C0.56217258 24.16715366 0.56217258 24.16715366 3.125 23.4375 C5.2769437 20.20958445 5.32586443 19.15349191 5.125 15.4375 C0.73349511 15.42372407 0.73349511 15.42372407 -2.875 17.4375 Z " fill="#404040" transform="translate(798.875,336.5625)"/>
<path d="M0 0 C0.77988281 -0.04898437 1.55976562 -0.09796875 2.36328125 -0.1484375 C4.6875 0.375 4.6875 0.375 6.96484375 2.16015625 C9.59500816 7.06860367 9.11128299 11.71667764 8.9375 17.1875 C8.91945313 18.26193359 8.90140625 19.33636719 8.8828125 20.44335938 C8.83579392 23.08815465 8.7700916 25.73111589 8.6875 28.375 C6.7075 28.375 4.7275 28.375 2.6875 28.375 C2.3575 21.115 2.0275 13.855 1.6875 6.375 C0.0375 6.375 -1.6125 6.375 -3.3125 6.375 C-5.75164492 8.81414492 -5.59912523 9.58946431 -5.7265625 12.9453125 C-5.76523437 13.84121094 -5.80390625 14.73710937 -5.84375 15.66015625 C-5.8746875 16.59730469 -5.905625 17.53445313 -5.9375 18.5 C-5.97617187 19.44488281 -6.01484375 20.38976562 -6.0546875 21.36328125 C-6.14911346 23.70032375 -6.23468394 26.03735501 -6.3125 28.375 C-8.2925 28.375 -10.2725 28.375 -12.3125 28.375 C-12.6425 19.465 -12.9725 10.555 -13.3125 1.375 C-10.64583333 1.375 -7.97916667 1.375 -5.3125 1.375 C-3.74331508 -0.19418492 -2.17164841 0.09241057 0 0 Z " fill="#404040" transform="translate(608.3125,336.625)"/>
<path d="M0 0 C0.77988281 -0.04898437 1.55976562 -0.09796875 2.36328125 -0.1484375 C4.6875 0.375 4.6875 0.375 6.96484375 2.16015625 C9.59500816 7.06860367 9.11128299 11.71667764 8.9375 17.1875 C8.91945313 18.26193359 8.90140625 19.33636719 8.8828125 20.44335938 C8.83579392 23.08815465 8.7700916 25.73111589 8.6875 28.375 C6.7075 28.375 4.7275 28.375 2.6875 28.375 C2.3575 21.115 2.0275 13.855 1.6875 6.375 C0.0375 6.375 -1.6125 6.375 -3.3125 6.375 C-5.75164492 8.81414492 -5.59912523 9.58946431 -5.7265625 12.9453125 C-5.76523437 13.84121094 -5.80390625 14.73710937 -5.84375 15.66015625 C-5.8746875 16.59730469 -5.905625 17.53445313 -5.9375 18.5 C-5.97617187 19.44488281 -6.01484375 20.38976562 -6.0546875 21.36328125 C-6.14911346 23.70032375 -6.23468394 26.03735501 -6.3125 28.375 C-8.2925 28.375 -10.2725 28.375 -12.3125 28.375 C-12.6425 19.465 -12.9725 10.555 -13.3125 1.375 C-10.64583333 1.375 -7.97916667 1.375 -5.3125 1.375 C-3.74331508 -0.19418492 -2.17164841 0.09241057 0 0 Z " fill="#404040" transform="translate(519.3125,336.625)"/>
<path d="M0 0 C2.69105198 2.17574416 4.45532928 3.91065856 6 7 C6.13559318 10.00474497 6.04299016 12.99068847 6 16 C1.05 16.33 -3.9 16.66 -9 17 C-7.54711014 21.5841963 -7.54711014 21.5841963 -6 23 C-4.31391034 23.07205511 -2.62499341 23.08386068 -0.9375 23.0625 C-0.01839844 23.05347656 0.90070312 23.04445313 1.84765625 23.03515625 C2.55792969 23.02355469 3.26820313 23.01195312 4 23 C4.33 24.65 4.66 26.3 5 28 C1.03476986 29.98261507 -3.68927721 29.55250109 -8 29 C-11.67530914 27.16234543 -13.6836893 24.94893209 -15 21 C-16.00676527 8.63824289 -16.00676527 8.63824289 -13.1875 4.3125 C-9.23238685 0.13138038 -5.65097399 -1.11256993 0 0 Z M-5 4 C-7.08333079 5.74934898 -7.08333079 5.74934898 -9 8 C-9 9.32 -9 10.64 -9 12 C-5.7 12 -2.4 12 1 12 C-0.01160848 7.60685207 -0.01160848 7.60685207 -3.125 4.625 C-3.74375 4.41875 -4.3625 4.2125 -5 4 Z " fill="#404040" transform="translate(961,337)"/>
<path d="M0 0 C2.69105198 2.17574416 4.45532928 3.91065856 6 7 C6.13559318 10.00474497 6.04299016 12.99068847 6 16 C1.05 16.33 -3.9 16.66 -9 17 C-7.54711014 21.5841963 -7.54711014 21.5841963 -6 23 C-4.31391034 23.07205511 -2.62499341 23.08386068 -0.9375 23.0625 C-0.01839844 23.05347656 0.90070312 23.04445313 1.84765625 23.03515625 C2.55792969 23.02355469 3.26820313 23.01195312 4 23 C4.33 24.65 4.66 26.3 5 28 C1.03476986 29.98261507 -3.68927721 29.55250109 -8 29 C-11.67530914 27.16234543 -13.6836893 24.94893209 -15 21 C-16.00676527 8.63824289 -16.00676527 8.63824289 -13.1875 4.3125 C-9.23238685 0.13138038 -5.65097399 -1.11256993 0 0 Z M-5 4 C-7.08333079 5.74934898 -7.08333079 5.74934898 -9 8 C-9 9.32 -9 10.64 -9 12 C-5.7 12 -2.4 12 1 12 C-0.01160848 7.60685207 -0.01160848 7.60685207 -3.125 4.625 C-3.74375 4.41875 -4.3625 4.2125 -5 4 Z " fill="#404040" transform="translate(567,337)"/>
<path d="M0 0 C0.33 1.65 0.66 3.3 1 5 C-2.06890187 6.53445094 -4.70094266 5.54984289 -8 5 C-8 6.65 -8 8.3 -8 10 C-7.0925 10.2475 -6.185 10.495 -5.25 10.75 C-1.6958987 12.11696204 -0.11098418 12.83352372 2 16 C2.61662137 19.12920937 2.63685679 21.87309052 2 25 C0.125 27.5625 0.125 27.5625 -3 29 C-7.05602555 29.43298232 -11.28376851 29.85811574 -15 28 C-14.67 26.35 -14.34 24.7 -14 23 C-11.03 23 -8.06 23 -5 23 C-5 21.68 -5 20.36 -5 19 C-6.71501449 17.49478253 -6.71501449 17.49478253 -8.9375 16.375 C-12.91341463 14.17317073 -12.91341463 14.17317073 -14 12 C-14.56265985 5.0230179 -14.56265985 5.0230179 -12.625 1.5 C-8.56988944 -0.81720603 -4.56419136 -0.3135704 0 0 Z " fill="#404040" transform="translate(727,337)"/>
<path d="M0 0 C0.33 1.65 0.66 3.3 1 5 C-2.06890187 6.53445094 -4.70094266 5.54984289 -8 5 C-8 6.65 -8 8.3 -8 10 C-7.0925 10.2475 -6.185 10.495 -5.25 10.75 C-1.6958987 12.11696204 -0.11098418 12.83352372 2 16 C2.61662137 19.12920937 2.63685679 21.87309052 2 25 C0.125 27.5625 0.125 27.5625 -3 29 C-7.05602555 29.43298232 -11.28376851 29.85811574 -15 28 C-14.67 26.35 -14.34 24.7 -14 23 C-11.03 23 -8.06 23 -5 23 C-5 21.68 -5 20.36 -5 19 C-6.71501449 17.49478253 -6.71501449 17.49478253 -8.9375 16.375 C-12.91341463 14.17317073 -12.91341463 14.17317073 -14 12 C-14.56265985 5.0230179 -14.56265985 5.0230179 -12.625 1.5 C-8.56988944 -0.81720603 -4.56419136 -0.3135704 0 0 Z " fill="#404040" transform="translate(637,337)"/>
<path d="M0 0 C0 2.31 0 4.62 0 7 C1.65 7 3.3 7 5 7 C5 8.65 5 10.3 5 12 C3.35 12 1.7 12 0 12 C0.33 17.61 0.66 23.22 1 29 C2.32 29.33 3.64 29.66 5 30 C5 31.65 5 33.3 5 35 C-2.5150564 35.36959294 -2.5150564 35.36959294 -4.609375 33.7734375 C-6.40574805 31.48255726 -6.34811061 30.21778863 -6.29296875 27.33203125 C-6.28330078 26.43935547 -6.27363281 25.54667969 -6.26367188 24.62695312 C-6.23853516 23.69818359 -6.21339844 22.76941406 -6.1875 21.8125 C-6.16719727 20.40194336 -6.16719727 20.40194336 -6.14648438 18.96289062 C-6.11113096 16.64134962 -6.06178674 14.32096347 -6 12 C-7.32 12 -8.64 12 -10 12 C-10 10.35 -10 8.7 -10 7 C-8.68 7 -7.36 7 -6 7 C-6 5.02 -6 3.04 -6 1 C-3 0 -3 0 0 0 Z " fill="#404040" transform="translate(936,331)"/>
<path d="M0 0 C0 2.31 0 4.62 0 7 C1.65 7 3.3 7 5 7 C5 8.65 5 10.3 5 12 C3.35 12 1.7 12 0 12 C0.33 17.61 0.66 23.22 1 29 C2.32 29.33 3.64 29.66 5 30 C5 31.65 5 33.3 5 35 C-2.5150564 35.36959294 -2.5150564 35.36959294 -4.609375 33.7734375 C-6.40574805 31.48255726 -6.34811061 30.21778863 -6.29296875 27.33203125 C-6.28330078 26.43935547 -6.27363281 25.54667969 -6.26367188 24.62695312 C-6.23853516 23.69818359 -6.21339844 22.76941406 -6.1875 21.8125 C-6.16719727 20.40194336 -6.16719727 20.40194336 -6.14648438 18.96289062 C-6.11113096 16.64134962 -6.06178674 14.32096347 -6 12 C-7.32 12 -8.64 12 -10 12 C-10 10.35 -10 8.7 -10 7 C-8.68 7 -7.36 7 -6 7 C-6 5.02 -6 3.04 -6 1 C-3 0 -3 0 0 0 Z " fill="#404040" transform="translate(918,331)"/>
<path d="M0 0 C0 2.31 0 4.62 0 7 C1.65 7 3.3 7 5 7 C5 8.65 5 10.3 5 12 C3.35 12 1.7 12 0 12 C0.33 17.61 0.66 23.22 1 29 C2.32 29.33 3.64 29.66 5 30 C5 31.65 5 33.3 5 35 C-2.5150564 35.36959294 -2.5150564 35.36959294 -4.609375 33.7734375 C-6.40574805 31.48255726 -6.34811061 30.21778863 -6.29296875 27.33203125 C-6.28330078 26.43935547 -6.27363281 25.54667969 -6.26367188 24.62695312 C-6.23853516 23.69818359 -6.21339844 22.76941406 -6.1875 21.8125 C-6.16719727 20.40194336 -6.16719727 20.40194336 -6.14648438 18.96289062 C-6.11113096 16.64134962 -6.06178674 14.32096347 -6 12 C-7.32 12 -8.64 12 -10 12 C-10 10.35 -10 8.7 -10 7 C-8.68 7 -7.36 7 -6 7 C-6 5.02 -6 3.04 -6 1 C-3 0 -3 0 0 0 Z " fill="#404040" transform="translate(823,331)"/>
<path d="M0 0 C0 2.31 0 4.62 0 7 C1.65 7 3.3 7 5 7 C5 8.65 5 10.3 5 12 C3.35 12 1.7 12 0 12 C0.33 17.61 0.66 23.22 1 29 C2.32 29.33 3.64 29.66 5 30 C5 31.65 5 33.3 5 35 C-2.5150564 35.36959294 -2.5150564 35.36959294 -4.609375 33.7734375 C-6.40574805 31.48255726 -6.34811061 30.21778863 -6.29296875 27.33203125 C-6.28330078 26.43935547 -6.27363281 25.54667969 -6.26367188 24.62695312 C-6.23853516 23.69818359 -6.21339844 22.76941406 -6.1875 21.8125 C-6.16719727 20.40194336 -6.16719727 20.40194336 -6.14648438 18.96289062 C-6.11113096 16.64134962 -6.06178674 14.32096347 -6 12 C-7.32 12 -8.64 12 -10 12 C-10 10.35 -10 8.7 -10 7 C-8.68 7 -7.36 7 -6 7 C-6 5.02 -6 3.04 -6 1 C-3 0 -3 0 0 0 Z " fill="#404040" transform="translate(752,331)"/>
<path d="M0 0 C0 2.31 0 4.62 0 7 C1.65 7 3.3 7 5 7 C5 8.65 5 10.3 5 12 C3.35 12 1.7 12 0 12 C0.33 17.61 0.66 23.22 1 29 C2.32 29.33 3.64 29.66 5 30 C5 31.65 5 33.3 5 35 C-2.5150564 35.36959294 -2.5150564 35.36959294 -4.609375 33.7734375 C-6.40574805 31.48255726 -6.34811061 30.21778863 -6.29296875 27.33203125 C-6.28330078 26.43935547 -6.27363281 25.54667969 -6.26367188 24.62695312 C-6.23853516 23.69818359 -6.21339844 22.76941406 -6.1875 21.8125 C-6.16719727 20.40194336 -6.16719727 20.40194336 -6.14648438 18.96289062 C-6.11113096 16.64134962 -6.06178674 14.32096347 -6 12 C-7.32 12 -8.64 12 -10 12 C-10 10.35 -10 8.7 -10 7 C-8.68 7 -7.36 7 -6 7 C-6 5.02 -6 3.04 -6 1 C-3 0 -3 0 0 0 Z " fill="#404040" transform="translate(542,331)"/>
<path d="M0 0 C1.2065625 0.0309375 1.2065625 0.0309375 2.4375 0.0625 C2.4375 2.0425 2.4375 4.0225 2.4375 6.0625 C1.2309375 6.5265625 1.2309375 6.5265625 0 7 C-2.45330405 7.82585345 -2.45330405 7.82585345 -3.5625 9.0625 C-3.71870555 10.47577947 -3.81306173 11.8960459 -3.87890625 13.31640625 C-3.92080078 14.17041016 -3.96269531 15.02441406 -4.00585938 15.90429688 C-4.04517578 16.80212891 -4.08449219 17.69996094 -4.125 18.625 C-4.16818359 19.52669922 -4.21136719 20.42839844 -4.25585938 21.35742188 C-4.36228142 23.59228485 -4.46429988 25.82726308 -4.5625 28.0625 C-6.5425 28.0625 -8.5225 28.0625 -10.5625 28.0625 C-10.8925 19.1525 -11.2225 10.2425 -11.5625 1.0625 C-8.89583333 1.0625 -6.22916667 1.0625 -3.5625 1.0625 C-2.5625 0.0625 -2.5625 0.0625 0 0 Z " fill="#404040" transform="translate(982.5625,336.9375)"/>
<path d="M0 0 C1.2065625 0.0309375 1.2065625 0.0309375 2.4375 0.0625 C2.4375 2.0425 2.4375 4.0225 2.4375 6.0625 C1.2309375 6.5265625 1.2309375 6.5265625 0 7 C-2.45330405 7.82585345 -2.45330405 7.82585345 -3.5625 9.0625 C-3.71870555 10.47577947 -3.81306173 11.8960459 -3.87890625 13.31640625 C-3.92080078 14.17041016 -3.96269531 15.02441406 -4.00585938 15.90429688 C-4.04517578 16.80212891 -4.08449219 17.69996094 -4.125 18.625 C-4.16818359 19.52669922 -4.21136719 20.42839844 -4.25585938 21.35742188 C-4.36228142 23.59228485 -4.46429988 25.82726308 -4.5625 28.0625 C-6.5425 28.0625 -8.5225 28.0625 -10.5625 28.0625 C-10.8925 19.1525 -11.2225 10.2425 -11.5625 1.0625 C-8.89583333 1.0625 -6.22916667 1.0625 -3.5625 1.0625 C-2.5625 0.0625 -2.5625 0.0625 0 0 Z " fill="#404040" transform="translate(588.5625,336.9375)"/>
<path d="M0 0 C1.98 0 3.96 0 6 0 C6 8.91 6 17.82 6 27 C4.02 27 2.04 27 0 27 C0 18.09 0 9.18 0 0 Z " fill="#404040" transform="translate(672,338)"/>
<path d="M0 0 C1.98 0 3.96 0 6 0 C6 8.91 6 17.82 6 27 C4.02 27 2.04 27 0 27 C0 18.09 0 9.18 0 0 Z " fill="#404040" transform="translate(494,338)"/>
<path d="M0 0 C0.66 0.33 1.32 0.66 2 1 C0.77023437 1.81404297 0.77023437 1.81404297 -0.484375 2.64453125 C-2.10085938 3.71767578 -2.10085938 3.71767578 -3.75 4.8125 C-4.81734375 5.52019531 -5.8846875 6.22789063 -6.984375 6.95703125 C-8.78065128 8.17393863 -10.55283142 9.42987409 -12.265625 10.76171875 C-14 12 -14 12 -16 12 C-16 10.68 -16 9.36 -16 8 C-13.37964982 6.63610475 -10.75443001 5.28367827 -8.125 3.9375 C-7.37863281 3.54755859 -6.63226562 3.15761719 -5.86328125 2.75585938 C-4.79013672 2.20961914 -4.79013672 2.20961914 -3.6953125 1.65234375 C-3.03547363 1.31195068 -2.37563477 0.97155762 -1.69580078 0.62084961 C-1.13618652 0.41596924 -0.57657227 0.21108887 0 0 Z " fill="#737373" transform="translate(931,60)"/>
<path d="M0 0 C1.67542976 0.28604898 3.34385343 0.61781233 5 1 C5 2.65 5 4.3 5 6 C3.34385343 6.38218767 1.67542976 6.71395102 0 7 C-1 6 -1 6 -1.125 3.5 C-1 1 -1 1 0 0 Z " fill="#404040" transform="translate(673,327)"/>
<path d="M0 0 C1.67542976 0.28604898 3.34385343 0.61781233 5 1 C5 2.65 5 4.3 5 6 C3.34385343 6.38218767 1.67542976 6.71395102 0 7 C-1 6 -1 6 -1.125 3.5 C-1 1 -1 1 0 0 Z " fill="#404040" transform="translate(495,327)"/>
<path d="M0 0 C0.66 0.33 1.32 0.66 2 1 C-0.64 2.65 -3.28 4.3 -6 6 C-6.66 5.34 -7.32 4.68 -8 4 C-6.71349294 3.30289269 -5.42059335 2.61757124 -4.125 1.9375 C-3.40570312 1.55464844 -2.68640625 1.17179687 -1.9453125 0.77734375 C-1.30335938 0.52082031 -0.66140625 0.26429687 0 0 Z " fill="#A4CAE0" transform="translate(931,60)"/>
<path d="M0 0 C0 0.66 0 1.32 0 2 C-1.32 1.67 -2.64 1.34 -4 1 C-2 0 -2 0 0 0 Z " fill="#787A9C" transform="translate(796,164)"/>
<path d="M0 0 C0.99 0.33 1.98 0.66 3 1 C2.01 1.33 1.02 1.66 0 2 C0 1.34 0 0.68 0 0 Z " fill="#73767F" transform="translate(815,152)"/>
<path d="M0 0 C0.99 0.495 0.99 0.495 2 1 C1.01 1.495 1.01 1.495 0 2 C0 1.34 0 0.68 0 0 Z " fill="#737373" transform="translate(783,169)"/>
<path d="M0 0 C3 1 3 1 3 1 Z " fill="#777999" transform="translate(786,160)"/>
<path d="M0 0 C2 1 2 1 2 1 Z " fill="#737373" transform="translate(796,157)"/>
</svg>
