<?xml version="1.0" encoding="UTF-8"?>
<svg version="1.1" xmlns="http://www.w3.org/2000/svg" width="2377" height="372">
<path d="M0 0 C1.64736423 0.00056563 3.29472896 0.0002446 4.9420929 -0.00088501 C9.36885398 -0.00145361 13.79550438 0.01021995 18.22223997 0.02426291 C22.86532737 0.03685333 27.50841794 0.03794726 32.15151978 0.04031372 C40.92361283 0.04650425 49.69565541 0.06288187 58.46772635 0.0830127 C68.46301697 0.1054477 78.45831014 0.11638416 88.45361972 0.12640357 C108.99596334 0.14725052 129.53826168 0.18237878 150.08056641 0.22705078 C150.1509372 21.00378827 150.20369115 41.78050584 150.23600292 62.55733871 C150.2514108 72.20639807 150.27238268 81.85538299 150.30688477 91.50439453 C150.33697475 99.92357763 150.35618546 108.34270676 150.36283189 116.76194215 C150.36671128 121.21159954 150.37569829 125.66110266 150.39775658 130.11071014 C150.6253417 177.92243999 141.9991719 218.34047159 108.08056641 254.22705078 C107.34580078 255.02626953 106.61103516 255.82548828 105.85400391 256.64892578 C78.01504557 285.88448738 40.19603327 298.20630442 0.79931641 300.41064453 C-37.64351637 301.32852116 -75.33796413 287.06607436 -103.29833984 260.75683594 C-131.63435284 233.49125586 -148.09216063 197.70283636 -149.14208984 158.28564453 C-149.84105197 115.95779829 -139.03765257 77.06523283 -109.34716797 45.69433594 C-79.73805454 15.22628799 -42.31955323 -0.20643431 0 0 Z " fill="#737373" transform="translate(148.91943359375,-0.22705078125)"/>
<path d="M0 0 C0.99 0.495 0.99 0.495 2 1 C1.63616211 1.57548584 1.27232422 2.15097168 0.89746094 2.74389648 C-0.23144035 4.92787405 -0.23144035 4.92787405 0.53222656 6.98852539 C0.89799805 7.68453857 1.26376953 8.38055176 1.640625 9.09765625 C2.04619629 9.88817383 2.45176758 10.67869141 2.86962891 11.49316406 C3.32515137 12.34104492 3.78067383 13.18892578 4.25 14.0625 C4.7145459 14.95807617 5.1790918 15.85365234 5.65771484 16.77636719 C7.08891343 19.52647553 8.54144059 22.26432155 10 25 C10.77923523 26.47234446 11.55791995 27.94498047 12.3359375 29.41796875 C13.49687878 31.61582126 14.65859316 33.81320243 15.82519531 36.00805664 C20.01835661 43.938008 24.00416159 51.96951405 28 60 C32.23098359 68.50286153 36.46045675 76.9980933 40.9375 85.375 C46.03021378 94.9061553 50.81217403 104.59079331 55.62695312 114.26416016 C60.18612964 123.42030741 64.79424565 132.53932879 69.60546875 141.56640625 C72.94175051 147.83907299 76.10940449 154.18966686 79.26708984 160.55371094 C81.95485195 165.95422791 84.72531346 171.30171688 87.5625 176.625 C92.37461985 185.66738207 96.93616954 194.83079351 101.5 204 C106.33386087 213.71161131 111.19389123 223.39669478 116.30444336 232.96655273 C122.44360533 244.51837194 128.17989309 256.28530165 134 268 C134.33 268.66 134.66 269.32 135 270 C96.59639245 287.33107933 54.26825169 291.52521759 13.94140625 277.65625 C-22.41450091 263.8063806 -52.08394437 237.21365455 -69 202 C-85.52448634 164.2183249 -87.80347754 118.72836211 -73 80 C-59.50097432 46.89036444 -37.19030973 21.43131134 -6.3125 3.375 C-5.41180786 2.84205322 -5.41180786 2.84205322 -4.49291992 2.29833984 C-3.03066148 1.46668168 -1.51833755 0.72422795 0 0 Z " fill="#737373" transform="translate(82,14)"/>
<path d="M0 0 C0.02437637 0.61678116 0.04875275 1.23356232 0.0738678 1.86903381 C0.50546223 8.43601243 2.08045042 13.26665033 5.12109375 19.05859375 C5.53988297 19.88722427 5.95867218 20.7158548 6.39015198 21.56959534 C7.72432422 24.20016727 9.08044338 26.8186741 10.4375 29.4375 C11.31329879 31.15746565 12.18765815 32.87816503 13.06054688 34.59960938 C17.3406928 43.01409943 21.71724981 51.37653157 26.12890625 59.72265625 C30.35410986 67.71614132 34.43304039 75.77467274 38.44711304 83.87591553 C43.6220329 94.31575125 48.83566893 104.72466346 54.32421875 115.00390625 C58.33140102 122.54444855 62.11437481 130.1964414 65.91583252 137.84191895 C69.92310008 145.89727056 74.01263252 153.89892431 78.2421875 161.83984375 C82.36527428 169.61595856 86.2638982 177.50182542 90.18164062 185.3828125 C93.39865568 191.8395777 96.6760411 198.25559276 100.0625 204.625 C103.97436881 212.01228274 107.83137044 219.42623936 111.625 226.875 C112.15875244 227.90447754 112.69250488 228.93395508 113.24243164 229.99462891 C113.73219482 230.96319824 114.22195801 231.93176758 114.7265625 232.9296875 C115.16564941 233.78804199 115.60473633 234.64639648 116.05712891 235.53076172 C117.09915356 238.25966833 117.33486761 240.10460936 117 243 C115.41295931 245.12396473 113.90929962 246.88286586 112.0625 248.75 C111.3048938 249.53987305 111.3048938 249.53987305 110.53198242 250.34570312 C109.50523975 251.41212902 108.47312025 252.47340569 107.43554688 253.52929688 C106.2104995 254.78434541 105.01593112 256.06902446 103.828125 257.359375 C94.54971725 267.21318788 81.61161364 277.79871348 69 283 C66.99710083 282.81539917 66.99710083 282.81539917 65 282 C63.71310425 280.26126099 63.71310425 280.26126099 62.59326172 277.96533203 C62.16536346 277.10577911 61.73746521 276.2462262 61.29660034 275.36062622 C60.8455191 274.41919769 60.39443787 273.47776917 59.9296875 272.5078125 C59.44855499 271.53327118 58.96742249 270.55872986 58.47171021 269.55465698 C56.92619126 266.41775771 55.40003942 263.27189908 53.875 260.125 C51.87700649 256.04200359 49.87180654 251.96255905 47.8671875 247.8828125 C47.37269104 246.87277161 46.87819458 245.86273071 46.36871338 244.82208252 C42.88354228 237.72410303 39.26329027 230.70989898 35.55233765 223.72781372 C31.76114913 216.58655672 28.14125265 209.36617337 24.55178833 202.12188721 C19.28429016 191.49518917 13.97343425 180.90103384 8.39453125 170.43359375 C5.05824949 164.16092701 1.89059551 157.81033314 -1.26708984 151.44628906 C-3.95485195 146.04577209 -6.72531346 140.69828312 -9.5625 135.375 C-14.37462 126.33261765 -18.93616141 117.16920257 -23.5 108 C-28.2935603 98.36943323 -33.11256093 88.76565254 -38.18359375 79.27734375 C-42.63414785 70.89895164 -46.82406929 62.38908587 -51.04669189 53.89434814 C-55.62525782 44.68578384 -60.26154166 35.51935593 -65.16992188 26.48046875 C-68.38854367 20.4973517 -68.38854367 20.4973517 -69 17 C-67.17934516 13.00531428 -64.01726948 11.88021543 -60.14941406 10.36206055 C-59.37823242 10.07758057 -58.60705078 9.79310059 -57.8125 9.5 C-57.01166992 9.19811768 -56.21083984 8.89623535 -55.38574219 8.58520508 C-37.26117061 1.9270168 -19.24058138 -0.39266493 0 0 Z " fill="#737373" transform="translate(150,0)"/>
<path d="M0 0 C11.55 0 23.1 0 35 0 C44.29648074 10.26775485 44.29648074 10.26775485 46.8125 15.83984375 C51.43343057 25.44516934 57.49976234 34.10039807 63.43884277 42.92526245 C66.64238867 47.7024561 69.79456109 52.5133159 72.953125 57.3203125 C79.29887669 66.9535321 85.68044999 76.56228446 92.10693359 86.1418457 C97.83858351 94.70104087 103.40091471 103.34686819 109 112 C109.33 75.04 109.66 38.08 110 0 C121.22 0 132.44 0 144 0 C144 55.44 144 110.88 144 168 C109 168 109 168 99.58984375 159.15625 C97.4564209 156.14819336 97.4564209 156.14819336 96.10351562 153.49609375 C95.58055908 152.5097998 95.05760254 151.52350586 94.51879883 150.50732422 C93.99697021 149.51490723 93.4751416 148.52249023 92.9375 147.5 C91.79635726 145.55679322 90.64337228 143.62049109 89.47851562 141.69140625 C87.22490128 137.91737078 85.04263047 134.11600688 82.92211914 130.265625 C74.64471204 115.24629763 64.81187065 101.17347936 55.1875 87 C53.23646427 84.12338925 51.28628636 81.24620588 49.33772278 78.36791992 C48.13719446 76.5948975 46.93521649 74.8228554 45.73149109 73.05200195 C45.18354385 72.24335693 44.63559662 71.43471191 44.07104492 70.6015625 C43.59712814 69.90369629 43.12321136 69.20583008 42.63493347 68.48681641 C40.36254125 65.03039303 38.1923404 61.50774465 36 58 C35.67 94.3 35.34 130.6 35 168 C23.45 168 11.9 168 0 168 C0 112.56 0 57.12 0 0 Z " fill="#737373" transform="translate(445,61)"/>
<path d="M0 0 C11.55 0 23.1 0 35 0 C36.28172646 3.20431614 37.28827648 5.7917102 38.03775024 9.0559845 C38.30692009 10.21482651 38.30692009 10.21482651 38.58152771 11.39707947 C38.77070267 12.23002029 38.95987762 13.06296112 39.15478516 13.92114258 C39.35990219 14.80944763 39.56501923 15.69775269 39.77635193 16.61297607 C40.45106915 19.53929813 41.12009119 22.4668908 41.7890625 25.39453125 C42.2566785 27.42770826 42.7246501 29.46080351 43.19296265 31.49382019 C44.42290637 36.83755717 45.64802025 42.18239017 46.87213135 47.52746582 C48.12277635 52.98447557 49.37798636 58.44043485 50.6328125 63.89648438 C53.09301041 74.59663314 55.54810712 85.29794535 58 96 C61.1861826 84.73638009 64.2063112 73.4462323 67.01680756 62.08309937 C67.62840862 59.61055191 68.24320211 57.13881555 68.85870361 54.66723633 C70.15851428 49.44549616 71.45452118 44.22281629 72.75 39 C74.26708925 32.88430793 75.78576822 26.76901895 77.30835724 20.6546936 C77.91353584 18.22103501 78.51587836 15.78668589 79.11810303 13.35229492 C79.48582431 11.87415196 79.85367586 10.39604139 80.22167969 8.91796875 C80.38789322 8.24278198 80.55410675 7.56759521 80.72535706 6.87194824 C81.88615692 2.22768616 81.88615692 2.22768616 83 0 C95.21 0 107.42 0 120 0 C128.63598633 34.54394531 128.63598633 34.54394531 129.16738319 36.66959381 C129.52094064 38.08378287 129.87453644 39.49796234 130.22817039 40.91213226 C131.1103397 44.44009896 131.99184638 47.96822865 132.87197876 51.4967041 C134.42831155 57.73340873 135.98860548 63.96892175 137.575284 70.1979866 C138.07835845 72.17361047 138.57960701 74.14968869 139.08030701 76.12591553 C139.69643299 78.55484069 140.31624332 80.98283524 140.94032288 83.409729 C141.34872658 85.02400787 141.34872658 85.02400787 141.76538086 86.67089844 C142.12471962 88.07683258 142.12471962 88.07683258 142.49131775 89.51116943 C143 92 143 92 143 96 C143.66 96 144.32 96 145 96 C145.12511963 94.86090179 145.25023926 93.72180359 145.37915039 92.54818726 C145.94631136 88.03135318 146.89094371 83.65684534 147.93359375 79.22900391 C148.1272049 78.39224121 148.32081604 77.55547852 148.52029419 76.69335938 C149.15536383 73.95348034 149.79627801 71.21500764 150.4375 68.4765625 C150.88236368 66.56471237 151.32693937 64.65279521 151.77124023 62.74081421 C152.70007862 58.74766932 153.63169437 54.75518618 154.56542969 50.76318359 C155.76374683 45.63944338 156.95615755 40.51435094 158.14665222 35.38878822 C159.06259636 31.44736294 159.98108886 27.50653515 160.90042114 23.5658989 C161.34126044 21.67535212 161.78142737 19.78464843 162.22091675 17.89378738 C162.83356679 15.26013978 163.44950803 12.62728418 164.06640625 9.99462891 C164.2482547 9.2102243 164.43010315 8.4258197 164.61746216 7.61764526 C165.88559986 2.22880028 165.88559986 2.22880028 167 0 C177.89 0 188.78 0 200 0 C197.75018637 11.24906813 197.75018637 11.24906813 196.19091797 16.50463867 C195.84175323 17.68964462 195.4925885 18.87465057 195.13284302 20.0955658 C194.56821854 21.98765526 194.56821854 21.98765526 193.9921875 23.91796875 C193.58950417 25.27934328 193.18724267 26.64084265 192.78536987 28.00245667 C191.93026731 30.89693629 191.07258794 33.79063388 190.21276855 36.68371582 C188.8643541 41.22112043 187.52178848 45.76024069 186.18066406 50.29980469 C185.95603233 51.06013693 185.7314006 51.82046917 185.49996185 52.60384178 C185.04401897 54.14718203 184.58809913 55.69052909 184.13220215 57.2338829 C183.44318379 59.56579815 182.7536205 61.89755172 182.06396484 64.22927856 C177.58135519 79.38991745 173.15839041 94.56763229 168.75 109.75 C168.05843795 112.1304545 167.36686915 114.51090703 166.67529297 116.89135742 C165.1155959 122.26053886 163.55782941 127.63027516 162 133 C149.46 133 136.92 133 124 133 C120.39031475 120.63380557 116.97137083 108.23262431 113.73046875 95.765625 C113.54611393 95.05684708 113.36175911 94.34806915 113.17181778 93.61781311 C111.64338634 87.73837268 110.12039255 81.85752665 108.5994873 75.97613525 C107.45219911 71.53961428 106.30227986 67.10379454 105.14834023 62.66899872 C104.61331003 60.60832574 104.0822723 58.54664991 103.55131531 56.48492432 C103.23040421 55.2514325 102.9094931 54.01794067 102.57885742 52.74707031 C102.29717209 51.65791321 102.01548676 50.5687561 101.7252655 49.44659424 C101.23374611 47.07475387 101.23374611 47.07475387 100 46 C99.72660294 47.04569656 99.45320587 48.09139313 99.17152405 49.16877747 C96.59755749 59.0132204 94.02253769 68.85738731 91.44648075 78.70128345 C90.12207302 83.76238661 88.79803933 88.823587 87.47485352 93.88500977 C86.1984056 98.76759594 84.92098423 103.64992647 83.64288139 108.5320797 C83.15491337 110.39674454 82.66729893 112.26150195 82.18004036 114.12635231 C81.49864226 116.73397468 80.81599904 119.34126806 80.13305664 121.94848633 C79.93093567 122.72316254 79.7288147 123.49783875 79.52056885 124.29598999 C78.7512947 127.22857893 77.95906564 130.12280308 77 133 C64.46 133 51.92 133 39 133 C32.53227376 113.13811728 26.69925106 93.10457819 20.86016846 73.05108643 C18.760951 65.84397125 16.65651511 58.63837683 14.55308151 51.4324913 C13.79213855 48.82470985 13.03194732 46.2167102 12.2718811 43.6086731 C10.02166204 35.89144435 7.76289936 28.17711161 5.46435547 20.47412109 C5.27168185 19.82776168 5.07900824 19.18140226 4.88049603 18.5154562 C4.00097847 15.56651182 3.11820391 12.61860886 2.23023987 9.67219543 C1.93181686 8.67459702 1.63339386 7.6769986 1.32592773 6.64916992 C1.06754623 5.79143478 0.80916473 4.93369965 0.54295349 4.04997253 C0 2 0 2 0 0 Z " fill="#737373" transform="translate(754,96)"/>
<path d="M0 0 C0 85.8 0 171.6 0 260 C-20.12483357 247.19328773 -37.26907576 232.30401836 -50 212 C-50.37898438 211.39704102 -50.75796875 210.79408203 -51.1484375 210.17285156 C-72.7354511 175.23883375 -77.39958749 131.24261544 -68.44628906 91.54492188 C-59.41081139 54.06771893 -35.90741698 23.02988846 -4 2 C-1 0 -1 0 0 0 Z " fill="#404040" transform="translate(72,20)"/>
<path d="M0 0 C1.1866626 0.00757324 2.3733252 0.01514648 3.59594727 0.02294922 C12.24991747 0.18572727 19.59795925 1.00962048 27.625 4.4375 C28.63949219 4.83839844 29.65398437 5.23929687 30.69921875 5.65234375 C45.9226162 12.377148 56.34751979 25.11380243 62.58203125 40.28515625 C67.17347811 54.16267542 65.625 63.20861021 65.625 79.4375 C33.615 79.4375 1.605 79.4375 -31.375 79.4375 C-27.68865278 94.2191538 -27.68865278 94.2191538 -17.34765625 104.44140625 C-9.47379458 108.4173166 -1.07163798 109.93459489 7.5234375 107.67578125 C15.78434166 104.89365142 15.78434166 104.89365142 21.6245575 98.71665955 C24.49885001 93.80819081 24.49885001 93.80819081 27.49990845 92.82034302 C29.76581596 92.62780757 31.93535092 92.64915694 34.20703125 92.75390625 C35.42829964 92.7687632 35.42829964 92.7687632 36.67424011 92.78392029 C39.26385982 92.8229754 41.8491718 92.91076389 44.4375 93 C46.1972042 93.0351261 47.95697516 93.06706286 49.71679688 93.09570312 C54.02118018 93.17270624 58.322361 93.29341369 62.625 93.4375 C60.76497575 105.87620952 52.80949282 117.03468206 42.98535156 124.72021484 C26.64423849 136.64119077 8.2736556 140.28130596 -11.6875 137.75 C-28.32249431 134.90843514 -42.58969023 127.54800093 -53.375 114.4375 C-66.20242815 96.26485467 -69.25076892 75.07737765 -66.125 53.4140625 C-64.18412876 42.31947548 -60.02871565 32.55324627 -53.375 23.4375 C-52.653125 22.40625 -51.93125 21.375 -51.1875 20.3125 C-38.04036142 5.44114652 -19.19894582 -0.17218785 0 0 Z M-25.1328125 39.6171875 C-28.90343747 45.02721464 -31.375 49.71981193 -31.375 56.4375 C-10.915 56.4375 9.545 56.4375 30.625 56.4375 C28.54093833 44.97516083 26.05418741 39.13405281 16.8203125 32.69140625 C3.06624985 24.83543808 -15.02392892 27.08217186 -25.1328125 39.6171875 Z " fill="#737373" transform="translate(679.375,93.5625)"/>
<path d="M0 0 C1.11697266 -0.020625 2.23394531 -0.04125 3.38476562 -0.0625 C22.05923792 -0.14910625 38.17636317 6.60485698 51.72265625 19.41015625 C67.56646206 36.23084411 70.27240347 56.11123986 69.61669922 78.21923828 C68.65647294 94.45935963 60.65423883 108.80666039 49.4375 120.25 C37.14805736 130.82137505 21.7555369 137.58098957 5.4375 138.25 C4.60089844 138.28996094 3.76429687 138.32992187 2.90234375 138.37109375 C-15.94999059 138.83222999 -34.71306812 133.29615009 -48.6953125 120.2421875 C-64.36360797 103.52496848 -68.4149968 84.44352675 -67.91015625 62.30859375 C-67.12487929 44.11212236 -59.08162779 27.95068984 -45.8125 15.5625 C-32.18083225 4.27377515 -17.33767514 0.07814163 0 0 Z M-25.5625 42.25 C-33.21868434 54.6510885 -34.32941368 67.84011097 -31.9140625 82.0703125 C-28.92322052 92.88335658 -23.61182397 99.64723365 -13.89453125 105.15625 C-6.6644333 108.54725071 2.66774335 108.30711563 10.36328125 106.6015625 C18.89092835 103.4981886 26.08987389 97.23442362 30.4375 89.25 C35.74610463 76.56709941 35.80989549 63.25168922 31.4375 50.25 C27.07597057 41.28236939 19.70298003 34.2612706 10.2734375 30.91015625 C-3.68099911 27.66180944 -16.29310745 31.30008781 -25.5625 42.25 Z " fill="#737373" transform="translate(1124.5625,93.75)"/>
<path d="M0 0 C10.67856574 7.6332712 17.00821869 19.19360851 19.59542847 31.93154907 C21.18527662 42.16269414 21.25774832 52.19214622 21.1953125 62.5234375 C21.19157282 64.3643071 21.18873037 66.20517871 21.18673706 68.04605103 C21.17917569 72.84307551 21.1595935 77.63997492 21.1373291 82.43695068 C21.11670725 87.35117909 21.10770074 92.26542811 21.09765625 97.1796875 C21.07633896 106.78652156 21.04121988 116.39323071 21 126 C9.45 126 -2.1 126 -14 126 C-14.02578125 120.29203125 -14.0515625 114.5840625 -14.078125 108.703125 C-14.10331985 105.06636264 -14.12967302 101.42968128 -14.16015625 97.79296875 C-14.20833021 92.03271276 -14.25243505 86.2726445 -14.27099609 80.51220703 C-14.28624667 75.86298929 -14.3208393 71.21426588 -14.36830902 66.56526947 C-14.38303676 64.80010041 -14.39103602 63.03486073 -14.39188385 61.26963043 C-14.4025039 50.23566479 -14.44282806 38.96862867 -21.125 29.5625 C-27.86733766 23.55302513 -35.72917518 20.64477014 -44.75390625 20.78125 C-52.66996783 21.55220556 -59.48595529 24.48595529 -65.125 30.125 C-71.8171804 40.38634328 -71.60386031 50.28621532 -71.609375 62.1328125 C-71.624376 63.97941525 -71.64110715 65.82600467 -71.65948486 67.6725769 C-71.70295519 72.50248879 -71.72311217 77.33221973 -71.73822021 82.16229248 C-71.75786494 87.10309457 -71.79982644 92.04370335 -71.83984375 96.984375 C-71.91492574 106.65622281 -71.96328424 116.32793038 -72 126 C-83.55 126 -95.1 126 -107 126 C-107 82.11 -107 38.22 -107 -7 C-95.45 -7 -83.9 -7 -72 -7 C-71.505 -0.565 -71.505 -0.565 -71 6 C-69.9275 4.96875 -68.855 3.9375 -67.75 2.875 C-49.25303924 -13.29344265 -20.018976 -13.61290368 0 0 Z " fill="#737373" transform="translate(1325,103)"/>
<path d="M0 0 C11.55 0 23.1 0 35 0 C35 10.89 35 21.78 35 33 C44.9 33 54.8 33 65 33 C65 42.24 65 51.48 65 61 C55.1 61 45.2 61 35 61 C35.09079762 72.96404842 35.09079762 72.96404842 35.20898438 84.92773438 C35.26327817 89.80848261 35.3143892 94.68911674 35.34643555 99.57006836 C35.37247839 103.50599859 35.41288729 107.44154495 35.46318626 111.37723732 C35.47984843 112.8774519 35.49136678 114.37773286 35.49761391 115.87802696 C35.50726249 117.98248746 35.53532826 120.08596738 35.56762695 122.19018555 C35.58428154 123.98555 35.58428154 123.98555 35.60127258 125.81718445 C36.037719 129.30108945 36.92997783 131.19355305 39 134 C41.99263432 136.06753839 44.61595758 136.28892875 48.203125 136.4140625 C49.08645508 136.44967285 49.96978516 136.4852832 50.87988281 136.52197266 C52.54809082 136.57297119 52.54809082 136.57297119 54.25 136.625 C57.7975 136.74875 61.345 136.8725 65 137 C65 146.57 65 156.14 65 166 C60.39486305 166.09277276 55.79307779 166.17210653 51.18774414 166.21972656 C49.62740993 166.23961365 48.06714791 166.26673352 46.50708008 166.30175781 C33.63536828 166.5831067 21.15246999 165.89620331 10.93359375 157.02734375 C-0.25517491 145.29608934 -0.45857074 129.60616297 -0.29296875 114.3203125 C-0.28735574 112.77090878 -0.28309374 111.22149963 -0.28010559 109.67208862 C-0.26879067 105.64435457 -0.23944317 101.61695837 -0.20599365 97.58935547 C-0.17500025 93.45935635 -0.16153849 89.32930128 -0.14648438 85.19921875 C-0.11455674 77.13264212 -0.06190273 69.06640233 0 61 C-4.95 61 -9.9 61 -15 61 C-15 51.76 -15 42.52 -15 33 C-10.05 33 -5.1 33 0 33 C0 22.11 0 11.22 0 0 Z " fill="#737373" transform="translate(977,63)"/>
<path d="M0 0 C9.16811214 7.66815389 13.70028509 16.48349996 16.33984375 28.08203125 C16.33984375 29.40203125 16.33984375 30.72203125 16.33984375 32.08203125 C9.73984375 32.08203125 3.13984375 32.08203125 -3.66015625 32.08203125 C-4.61921875 29.39046875 -4.61921875 29.39046875 -5.59765625 26.64453125 C-9.42398547 17.58104752 -14.81222562 12.01681555 -23.84765625 8.08203125 C-36.18063695 3.32714713 -49.07324507 3.95391335 -61.13671875 9.1484375 C-67.69884612 12.47339501 -72.43013326 16.91698144 -75.53515625 23.64453125 C-77.89624222 30.91158626 -77.92776289 39.79718477 -75.22265625 46.95703125 C-69.49845834 57.68740922 -58.84200877 61.7752895 -47.85351562 65.3046875 C-44.43201881 66.34409901 -40.99866822 67.34162411 -37.56295776 68.33288574 C1.26127215 79.58890193 1.26127215 79.58890193 12.33984375 95.08203125 C18.41745271 106.26114833 19.73145545 120.69554047 16.46875 133.0390625 C11.94305049 145.54779917 3.28151269 155.12797746 -8.41015625 161.33203125 C-26.41238518 169.66474613 -48.01284199 169.72622617 -66.66015625 163.08203125 C-79.21053782 158.23772188 -89.25722787 149.58591325 -94.94140625 137.31640625 C-97.29405164 131.3003559 -97.91388983 126.798429 -98.66015625 120.08203125 C-92.06015625 120.08203125 -85.46015625 120.08203125 -78.66015625 120.08203125 C-77.85578125 122.80453125 -77.85578125 122.80453125 -77.03515625 125.58203125 C-75.09893371 131.35673005 -72.78773686 135.62464396 -68.66015625 140.08203125 C-67.90798828 140.91347656 -67.90798828 140.91347656 -67.140625 141.76171875 C-60.17193566 148.57780905 -50.19987221 150.60943196 -40.73828125 151.1171875 C-28.82760326 150.98115184 -18.30572299 148.34334455 -9.453125 140.14453125 C-3.47817568 133.27138694 -1.07069418 125.0713278 -1.66015625 116.08203125 C-3.12394657 107.8633186 -6.533794 101.72714198 -13.4074707 96.83959961 C-17.92560439 93.87910119 -22.32956135 91.86807705 -27.47265625 90.26953125 C-28.22401855 90.02509277 -28.97538086 89.7806543 -29.74951172 89.52880859 C-34.56310199 87.98558592 -39.40869491 86.57580448 -44.2734375 85.203125 C-81.44631511 74.67497821 -81.44631511 74.67497821 -92.08203125 58.984375 C-93.14738561 57.04280529 -93.94416056 55.17590236 -94.66015625 53.08203125 C-94.881875 52.44394531 -95.10359375 51.80585937 -95.33203125 51.1484375 C-98.90337179 38.38330812 -97.34154011 24.27404941 -91.375 12.55859375 C-84.34035464 1.07585788 -72.67318392 -6.67679543 -59.73046875 -10.01953125 C-39.08032811 -14.64970957 -17.40819586 -12.55128365 0 0 Z " fill="#737373" transform="translate(1528.66015625,63.91796875)"/>
<path d="M0 0 C6.27 0 12.54 0 19 0 C19.33 22.11 19.66 44.22 20 67 C23.96 62.545 23.96 62.545 28 58 C41.99346311 46.51666375 58.66411159 45.07697534 76 46 C87.64410784 47.40710394 99.29279199 53.00220385 107.2265625 61.72265625 C117.91145183 75.44356039 121.19279937 90.89833402 121.11352539 107.91625977 C121.11367142 108.75638107 121.11381744 109.59650238 121.1139679 110.46208191 C121.11327803 113.20521742 121.10552954 115.94828278 121.09765625 118.69140625 C121.09578877 120.60668399 121.09436643 122.52196221 121.09336853 124.4372406 C121.0895693 129.45294538 121.07976144 134.46862073 121.06866455 139.48431396 C121.05839438 144.61258547 121.05385895 149.74086178 121.04882812 154.86914062 C121.03813661 164.91277536 121.02056109 174.95638062 121 185 C114.73 185 108.46 185 102 185 C101.9906543 182.37200439 101.98130859 179.74400879 101.97167969 177.03637695 C101.93777062 168.31113828 101.88214495 159.58613267 101.81609726 150.86108112 C101.77674552 145.575914 101.74449699 140.29091042 101.72900391 135.00561523 C101.71375593 129.89606059 101.67916738 124.78695596 101.63169098 119.67760277 C101.61696067 117.73741781 101.60896383 115.79716857 101.60811615 113.85692787 C101.59548316 99.42804725 101.05040841 85.43513135 91 74 C81.68317504 64.99959551 71.06978873 62.65659921 58.4140625 62.78515625 C47.38710184 63.47907254 37.12560194 67.86306735 29.5625 76.00390625 C19.46906628 88.89826782 19.54184737 105.06953393 19.48828125 120.64453125 C19.47140076 122.50926367 19.4532461 124.37398494 19.43388367 126.23869324 C19.38674301 131.10304275 19.35670264 135.96734708 19.33044434 140.83184814 C19.30045572 145.81311974 19.25398913 150.79423608 19.20898438 155.77539062 C19.12336089 165.51686292 19.05736179 175.25832026 19 185 C12.73 185 6.46 185 0 185 C0 123.95 0 62.9 0 0 Z " fill="#737373" transform="translate(1732,44)"/>
<path d="M0 0 C15.09396908 14.1194958 20.9029425 31.89468787 22.34375 52.24609375 C22.8835689 72.55677973 16.64084698 91.24558561 2.77734375 106.15625 C-13.79156669 121.92729959 -32.16288157 125.11913987 -54.12890625 124.87109375 C-71.21740481 124.39490714 -86.04610228 116.89644299 -97.84375 104.59765625 C-111.92522331 89.37366989 -116.51546534 69.64548106 -115.76220703 49.40673828 C-114.59849568 30.37387675 -107.67631362 13.90741431 -93.84375 0.59765625 C-67.3576925 -21.80758646 -26.73025028 -22.58118671 0 0 Z M-84.18359375 15.49609375 C-90.19248138 23.10263856 -93.9458871 31.12352466 -95.84375 40.59765625 C-96.070625 41.69078125 -96.2975 42.78390625 -96.53125 43.91015625 C-98.08592195 62.2552852 -95.77160769 79.53565534 -83.59375 93.97265625 C-74.45212662 103.47994457 -62.70240474 108.52281713 -49.52978516 109.0703125 C-35.13296881 109.25039329 -22.32162366 104.82075989 -11.65625 94.97265625 C-0.65554857 83.2816274 3.62962483 68.3376915 3.36328125 52.55078125 C2.30468382 37.45078767 -2.01332752 21.92027978 -13.84375 11.59765625 C-34.52625312 -4.52937592 -65.72966568 -4.31024985 -84.18359375 15.49609375 Z " fill="#737373" transform="translate(2156.84375,106.40234375)"/>
<path d="M0 0 C15.09396908 14.1194958 20.9029425 31.89468787 22.34375 52.24609375 C22.8835689 72.55677973 16.64084698 91.24558561 2.77734375 106.15625 C-13.79156669 121.92729959 -32.16288157 125.11913987 -54.12890625 124.87109375 C-71.21740481 124.39490714 -86.04610228 116.89644299 -97.84375 104.59765625 C-111.92522331 89.37366989 -116.51546534 69.64548106 -115.76220703 49.40673828 C-114.59849568 30.37387675 -107.67631362 13.90741431 -93.84375 0.59765625 C-67.3576925 -21.80758646 -26.73025028 -22.58118671 0 0 Z M-84.18359375 15.49609375 C-90.19248138 23.10263856 -93.9458871 31.12352466 -95.84375 40.59765625 C-96.070625 41.69078125 -96.2975 42.78390625 -96.53125 43.91015625 C-98.08592195 62.2552852 -95.77160769 79.53565534 -83.59375 93.97265625 C-74.45212662 103.47994457 -62.70240474 108.52281713 -49.52978516 109.0703125 C-35.13296881 109.25039329 -22.32162366 104.82075989 -11.65625 94.97265625 C-0.65554857 83.2816274 3.62962483 68.3376915 3.36328125 52.55078125 C2.30468382 37.45078767 -2.01332752 21.92027978 -13.84375 11.59765625 C-34.52625312 -4.52937592 -65.72966568 -4.31024985 -84.18359375 15.49609375 Z " fill="#737373" transform="translate(1996.84375,106.40234375)"/>
<path d="M0 0 C7.98116877 7.43028002 14.34771379 17.1782852 16.6328125 27.97265625 C16.6328125 29.29265625 16.6328125 30.61265625 16.6328125 31.97265625 C10.0328125 31.97265625 3.4328125 31.97265625 -3.3671875 31.97265625 C-4.140625 29.52859375 -4.140625 29.52859375 -4.9296875 27.03515625 C-8.90879014 16.21088403 -15.63258313 9.80921677 -25.82421875 4.75390625 C-38.09378479 -0.39673617 -51.85446355 -0.15324193 -64.3671875 3.97265625 C-75.63497046 8.71774042 -83.08289484 15.97644031 -88.3671875 26.97265625 C-90.93257373 33.77011275 -93.05543854 40.68552429 -93.3671875 47.97265625 C-93.41875 48.97425781 -93.4703125 49.97585937 -93.5234375 51.0078125 C-93.96712187 67.40564748 -90.89506184 82.27207738 -80.3671875 95.28515625 C-71.29164736 104.78922105 -58.92553977 108.80296294 -46.0546875 109.28515625 C-34.52136887 109.00861688 -23.09230318 105.89534335 -14.3046875 98.15625 C-8.93038086 92.42288408 -5.26876987 85.57898575 -3.3671875 77.97265625 C3.2328125 77.97265625 9.8328125 77.97265625 16.6328125 77.97265625 C14.78941565 90.87643419 8.00529988 103.75079469 -2.3671875 111.97265625 C-16.12137056 121.72058733 -28.84086274 125.15088199 -45.4296875 125.22265625 C-47.17668945 125.25359375 -47.17668945 125.25359375 -48.95898438 125.28515625 C-66.61902484 125.36386395 -81.87331817 119.3312455 -94.48828125 106.87890625 C-108.92697851 91.37573036 -113.83924227 71.87073547 -113.34375 51.13305664 C-112.43967465 30.78918807 -105.35482661 12.92237021 -90.3671875 -1.02734375 C-65.22804368 -22.32904817 -24.60313015 -21.07099761 0 0 Z " fill="#737373" transform="translate(1684.3671875,106.02734375)"/>
<path d="M0 0 C23.43 0 46.86 0 71 0 C71 48.51 71 97.02 71 147 C68.5279554 144.5279554 67.44392188 143.25697143 65.98217773 140.2890625 C65.6142662 139.54978516 65.24635468 138.81050781 64.86729431 138.04882812 C64.47667313 137.24896484 64.08605194 136.44910156 63.68359375 135.625 C63.05965477 134.36719727 63.05965477 134.36719727 62.42311096 133.08398438 C61.08886139 130.39210438 59.76273575 127.69632742 58.4375 125 C56.71031066 121.498372 54.97946693 117.99857078 53.24609375 114.5 C52.81303925 113.62520996 52.37998474 112.75041992 51.93380737 111.84912109 C48.59914358 105.14002052 45.13606115 98.50569435 41.62571716 91.88720703 C37.81565806 84.69033979 34.16727612 77.41869108 30.55206299 70.12243652 C25.67351093 60.28042404 20.78414467 50.44872277 15.625 40.75 C14.86961201 39.31910525 14.11440204 37.8881165 13.359375 36.45703125 C12.08880876 34.05030669 10.81077371 31.64823157 9.52148438 29.25146484 C7.95276334 26.32354374 6.41224753 23.38204523 4.875 20.4375 C4.38854004 19.54450195 3.90208008 18.65150391 3.40087891 17.73144531 C2.73451416 16.43932129 2.73451416 16.43932129 2.0546875 15.12109375 C1.45889893 13.99852173 1.45889893 13.99852173 0.85107422 12.85327148 C0 10 0 10 0 0 Z " fill="#404040" transform="translate(150,0)"/>
<path d="M0 0 C2.74421105 2.74421105 3.91094458 4.47775954 5.56640625 7.875 C6.0461792 8.84937012 6.52595215 9.82374023 7.02026367 10.82763672 C7.52920166 11.8745166 8.03813965 12.92139648 8.5625 14 C9.65201435 16.21174193 10.74317676 18.42267273 11.8359375 20.6328125 C12.37573242 21.7249707 12.91552734 22.81712891 13.47167969 23.94238281 C15.47790524 27.95611584 17.57075979 31.9187821 19.6875 35.875 C24.46182184 44.83195847 28.9776656 53.91423685 33.5 63 C38.33386937 72.71160704 43.19389111 82.39669457 48.30444336 91.96655273 C54.44360533 103.51837194 60.17989309 115.28530165 66 127 C66.33 127.66 66.66 128.32 67 129 C44.75859844 139.03727304 24.52539846 143.5573295 0 145 C0 97.15 0 49.3 0 0 Z " fill="#404040" transform="translate(150,155)"/>
<path d="M0 0 C6.27 0 12.54 0 19 0 C19 61.05 19 122.1 19 185 C12.73 185 6.46 185 0 185 C0 123.95 0 62.9 0 0 Z " fill="#737373" transform="translate(2210,44)"/>
<path d="M0 0 C1.32 0 2.64 0 4 0 C4 2.64 4 5.28 4 8 C1.84622436 5.37801226 0.59927826 3.35595828 0 0 Z " fill="#737373" transform="translate(146,0)"/>
</svg>
